<?xml version="1.0" standalone="no"?>
<!DOCTYPE svg PUBLIC "-//W3C//DTD SVG 20010904//EN"
 "http://www.w3.org/TR/2001/REC-SVG-20010904/DTD/svg10.dtd">
<svg version="1.0" xmlns="http://www.w3.org/2000/svg"
 width="572.000000pt" height="599.000000pt" viewBox="0 0 572.000000 599.000000"
 preserveAspectRatio="xMidYMid meet">

<g transform="translate(0.000000,599.000000) scale(0.100000,-0.100000)"
fill="#000000" stroke="none">
<path d="M2770 5880 c-17 -22 -29 -40 -27 -40 3 0 20 18 37 40 17 22 29 40 27
40 -3 0 -20 -18 -37 -40z"/>
<path d="M2855 5829 c-22 -23 -67 -54 -100 -70 -33 -16 -54 -29 -47 -29 25 0
78 28 130 69 40 32 60 41 77 37 12 -3 96 -60 185 -127 121 -90 160 -123 149
-130 -10 -6 -7 -9 12 -9 16 0 65 -29 135 -81 682 -508 1010 -754 1012 -761 2
-4 27 -24 55 -45 l51 -38 -649 -5 -650 -5 658 -2 657 -2 55 -38 c30 -21 54
-41 55 -44 0 -4 -11 -10 -24 -13 -14 -3 -40 -25 -60 -49 -24 -30 -50 -48 -86
-61 -28 -10 -49 -21 -46 -23 14 -14 105 36 147 80 44 46 48 48 94 45 56 -4 67
11 28 34 -16 9 -41 28 -58 42 l-30 26 149 0 148 0 -4 -24 c-4 -17 -1 -23 9
-19 7 3 13 9 13 15 0 5 6 6 13 2 8 -6 8 -3 -1 9 -12 15 -7 16 60 20 l73 3 -77
2 c-75 2 -78 3 -115 40 -21 21 -26 24 -10 7 15 -17 27 -34 27 -38 0 -4 -69 -7
-154 -7 -151 0 -155 1 -185 26 -17 14 -35 23 -41 19 -6 -4 -9 -3 -8 2 2 4 -1
9 -6 10 -5 0 -13 8 -18 17 -5 9 -33 32 -63 51 -30 19 -132 92 -227 163 -182
135 -342 250 -369 267 -23 14 -451 334 -469 351 -8 8 -69 53 -135 101 -66 47
-161 117 -212 155 -50 37 -95 68 -100 68 -5 0 -27 -19 -48 -41z"/>
<path d="M2755 5836 c-44 -16 -59 -41 -30 -52 17 -7 95 40 95 57 0 8 -4 8 -14
0 -8 -7 -16 -8 -18 -3 -1 4 -16 3 -33 -2z"/>
<path d="M2693 5603 c26 -2 68 -2 95 0 26 2 4 3 -48 3 -52 0 -74 -1 -47 -3z"/>
<path d="M2893 5603 c26 -2 68 -2 95 0 26 2 4 3 -48 3 -52 0 -74 -1 -47 -3z"/>
<path d="M2558 5593 c12 -2 30 -2 40 0 9 3 -1 5 -23 4 -22 0 -30 -2 -17 -4z"/>
<path d="M3088 5593 c12 -2 30 -2 40 0 9 3 -1 5 -23 4 -22 0 -30 -2 -17 -4z"/>
<path d="M2473 5583 c9 -2 23 -2 30 0 6 3 -1 5 -18 5 -16 0 -22 -2 -12 -5z"/>
<path d="M3188 5583 c6 -2 18 -2 25 0 6 3 1 5 -13 5 -14 0 -19 -2 -12 -5z"/>
<path d="M2408 5573 c6 -2 18 -2 25 0 6 3 1 5 -13 5 -14 0 -19 -2 -12 -5z"/>
<path d="M2348 5563 c6 -2 18 -2 25 0 6 3 1 5 -13 5 -14 0 -19 -2 -12 -5z"/>
<path d="M2298 5553 c7 -3 16 -2 19 1 4 3 -2 6 -13 5 -11 0 -14 -3 -6 -6z"/>
<path d="M3368 5553 c7 -3 16 -2 19 1 4 3 -2 6 -13 5 -11 0 -14 -3 -6 -6z"/>
<path d="M2248 5543 c6 -2 18 -2 25 0 6 3 1 5 -13 5 -14 0 -19 -2 -12 -5z"/>
<path d="M3418 5543 c7 -3 16 -2 19 1 4 3 -2 6 -13 5 -11 0 -14 -3 -6 -6z"/>
<path d="M2208 5533 c7 -3 16 -2 19 1 4 3 -2 6 -13 5 -11 0 -14 -3 -6 -6z"/>
<path d="M3458 5533 c7 -3 16 -2 19 1 4 3 -2 6 -13 5 -11 0 -14 -3 -6 -6z"/>
<path d="M2168 5523 c7 -3 16 -2 19 1 4 3 -2 6 -13 5 -11 0 -14 -3 -6 -6z"/>
<path d="M3498 5523 c7 -3 16 -2 19 1 4 3 -2 6 -13 5 -11 0 -14 -3 -6 -6z"/>
<path d="M3538 5513 c7 -3 16 -2 19 1 4 3 -2 6 -13 5 -11 0 -14 -3 -6 -6z"/>
<path d="M3608 5493 c7 -3 16 -2 19 1 4 3 -2 6 -13 5 -11 0 -14 -3 -6 -6z"/>
<path d="M2028 5483 c7 -3 16 -2 19 1 4 3 -2 6 -13 5 -11 0 -14 -3 -6 -6z"/>
<path d="M1950 5460 c-8 -5 -10 -10 -5 -10 6 0 17 5 25 10 8 5 11 10 5 10 -5
0 -17 -5 -25 -10z"/>
<path d="M3820 5420 c8 -5 20 -10 25 -10 6 0 3 5 -5 10 -8 5 -19 10 -25 10 -5
0 -3 -5 5 -10z"/>
<path d="M3870 5400 c8 -5 20 -10 25 -10 6 0 3 5 -5 10 -8 5 -19 10 -25 10 -5
0 -3 -5 5 -10z"/>
<path d="M1770 5390 c-8 -5 -10 -10 -5 -10 6 0 17 5 25 10 8 5 11 10 5 10 -5
0 -17 -5 -25 -10z"/>
<path d="M3951 5366 c10 -9 189 -96 189 -91 0 5 -176 95 -186 95 -4 0 -5 -2
-3 -4z"/>
<path d="M1638 5329 c-32 -16 -58 -32 -58 -34 0 -5 119 52 129 61 13 12 -22
-1 -71 -27z"/>
<path d="M1504 5254 c-18 -14 -18 -15 4 -4 12 6 22 13 22 15 0 8 -5 6 -26 -11z"/>
<path d="M4170 5256 c0 -3 9 -10 20 -16 11 -6 20 -8 20 -6 0 3 -9 10 -20 16
-11 6 -20 8 -20 6z"/>
<path d="M1454 5224 c-18 -14 -18 -15 4 -4 12 6 22 13 22 15 0 8 -5 6 -26 -11z"/>
<path d="M4220 5226 c0 -3 9 -10 20 -16 11 -6 20 -8 20 -6 0 3 -9 10 -20 16
-11 6 -20 8 -20 6z"/>
<path d="M1393 5189 c-35 -22 -46 -37 -15 -20 22 13 58 40 52 41 -3 0 -20 -10
-37 -21z"/>
<path d="M1303 5129 c-24 -17 -43 -32 -43 -35 0 -3 20 9 45 26 25 17 45 33 45
35 0 7 -2 6 -47 -26z"/>
<path d="M4390 5116 c0 -2 8 -10 18 -17 15 -13 16 -12 3 4 -13 16 -21 21 -21
13z"/>
<path d="M1215 5064 c-18 -16 -22 -22 -9 -15 18 9 53 42 43 41 -2 -1 -17 -12
-34 -26z"/>
<path d="M4430 5087 c0 -3 17 -17 37 -33 20 -15 33 -23 29 -16 -8 13 -66 56
-66 49z"/>
<path d="M4530 5005 c13 -14 26 -25 28 -25 3 0 -5 11 -18 25 -13 14 -26 25
-28 25 -3 0 5 -11 18 -25z"/>
<path d="M4570 4977 c0 -2 15 -16 33 -33 l32 -29 -29 33 c-28 30 -36 37 -36
29z"/>
<path d="M4730 4825 c52 -52 97 -95 100 -95 2 0 -38 43 -90 95 -52 52 -97 95
-100 95 -2 0 38 -43 90 -95z"/>
<path d="M2960 4890 c6 -11 13 -20 16 -20 2 0 0 9 -6 20 -6 11 -13 20 -16 20
-2 0 0 -9 6 -20z"/>
<path d="M2997 4903 c-9 -2 -15 -9 -12 -14 3 -5 1 -18 -6 -30 l-11 -22 -24 27
c-24 26 -41 35 -29 17 3 -6 -9 -7 -31 -4 -33 5 -37 4 -31 -12 5 -12 3 -16 -7
-12 -9 4 -16 -1 -18 -11 -4 -19 41 -52 72 -52 10 0 53 -18 95 -40 113 -58 135
-57 135 10 0 32 -4 39 -25 44 -13 3 -29 15 -35 26 -6 10 -16 17 -24 14 -7 -3
-16 3 -20 13 -3 10 -9 24 -12 32 -5 9 -3 11 6 6 9 -5 11 -4 6 3 -4 7 -8 11 -9
11 -1 -1 -10 -3 -20 -6z"/>
<path d="M2668 4833 c7 -3 16 -2 19 1 4 3 -2 6 -13 5 -11 0 -14 -3 -6 -6z"/>
<path d="M2696 4821 c-11 -16 27 -22 43 -6 14 13 13 15 -11 15 -15 0 -29 -4
-32 -9z"/>
<path d="M2429 4763 c-13 -16 -12 -17 4 -4 9 7 17 15 17 17 0 8 -8 3 -21 -13z"/>
<path d="M2525 4770 c-5 -9 -1 -10 14 -5 16 5 20 3 15 -9 -5 -13 -29 -21 -55
-18 -4 1 -15 -9 -25 -21 -10 -12 -12 -17 -5 -10 7 6 19 9 26 6 8 -2 23 1 35 7
12 6 31 13 42 15 27 6 34 13 22 24 -16 17 -61 23 -69 11z"/>
<path d="M2804 4754 c3 -9 6 -18 6 -20 0 -2 11 -4 25 -4 16 0 25 6 25 15 0 13
-4 14 -20 5 -16 -9 -18 -8 -14 5 4 10 0 15 -11 15 -12 0 -15 -5 -11 -16z"/>
<path d="M2390 4708 c-12 -22 -12 -22 6 -6 10 10 15 20 12 24 -4 3 -12 -5 -18
-18z"/>
<path d="M2608 4713 c7 -3 16 -2 19 1 4 3 -2 6 -13 5 -11 0 -14 -3 -6 -6z"/>
<path d="M2971 4705 c2 -11 14 -24 26 -30 25 -11 39 -35 20 -35 -7 0 -18 9
-25 20 -7 12 -17 18 -22 15 -18 -11 -11 -22 24 -39 46 -22 66 -20 66 4 0 11
-4 20 -10 20 -5 0 -26 14 -46 32 -30 26 -36 29 -33 13z"/>
<path d="M2730 4681 c-14 -27 -13 -31 8 -32 13 0 12 -2 -5 -9 -13 -5 -23 -16
-23 -24 0 -8 -3 -21 -6 -30 -5 -12 0 -16 20 -16 14 0 26 4 26 9 0 5 3 16 6 25
4 11 0 16 -12 17 -14 0 -15 2 -4 6 8 3 20 12 27 20 10 12 12 11 17 -5 5 -14
14 -19 29 -16 17 3 16 1 -5 -8 -16 -7 -28 -18 -28 -26 0 -7 -5 -10 -11 -6 -7
4 -9 0 -5 -14 6 -18 3 -21 -22 -20 -16 1 -34 -2 -40 -6 -18 -11 -62 12 -62 34
0 25 -25 26 -39 3 -6 -10 -11 -12 -11 -5 0 6 -9 12 -21 12 -11 0 -18 -4 -15
-9 4 -5 2 -19 -2 -31 -8 -21 -10 -21 -24 -6 -9 9 -23 16 -30 16 -8 0 -19 5
-26 12 -9 9 -12 9 -12 0 0 -6 -7 -9 -15 -6 -20 8 -19 -5 1 -27 23 -25 11 -69
-18 -69 -18 0 -18 -13 0 -16 33 -4 61 -44 31 -44 -5 0 -7 5 -3 12 4 7 3 8 -4
4 -14 -8 -16 -76 -3 -76 5 0 11 -13 13 -29 4 -25 0 -31 -19 -36 -17 -4 -22
-11 -19 -28 3 -12 5 -30 5 -39 1 -10 7 -18 15 -18 14 0 26 -29 26 -68 0 -14
13 -36 30 -52 29 -27 41 -70 19 -70 -5 0 -7 -5 -4 -11 4 -6 -4 -22 -16 -36
l-24 -26 24 14 c18 11 25 11 28 2 7 -19 43 -16 62 5 9 9 26 26 39 36 22 19 22
19 22 -1 0 -22 -82 -80 -106 -75 -8 2 -14 -5 -14 -14 0 -11 5 -14 16 -10 9 3
39 6 67 6 48 1 50 2 29 13 -22 13 -23 13 -4 31 19 16 21 16 39 -7 14 -19 23
-22 41 -16 14 5 22 4 22 -2 0 -18 28 -41 32 -27 3 7 -9 28 -26 46 -17 19 -30
39 -28 45 2 6 -2 23 -9 40 -10 23 -10 30 1 37 18 11 61 -20 54 -41 -2 -9 4
-27 15 -40 11 -14 21 -38 23 -53 4 -38 29 -54 60 -39 13 6 30 14 38 16 12 4
11 6 -2 6 -11 1 -18 9 -18 22 0 21 0 21 -18 -2 -26 -31 -57 -20 -49 19 3 15 2
34 -2 41 -5 7 -6 22 -3 33 4 17 11 19 41 14 27 -4 40 -1 58 16 30 28 53 10 53
-42 0 -27 5 -39 18 -44 9 -3 24 -9 32 -12 13 -6 13 -5 0 12 -22 27 -42 65 -37
70 2 2 19 -7 37 -21 19 -14 41 -25 51 -25 9 0 22 -7 29 -15 17 -20 23 -19 66
10 20 14 32 25 27 25 -6 0 -22 -9 -36 -20 -30 -24 -41 -25 -58 -4 -11 13 -7
21 26 51 39 36 65 74 65 97 0 7 11 23 25 36 30 28 32 50 5 57 -11 3 -20 12
-20 19 0 8 -3 13 -8 12 -4 -2 -21 11 -37 28 -17 18 -41 34 -55 35 -22 4 -26
10 -31 53 -3 28 -11 52 -17 54 -7 2 -10 14 -6 30 l6 27 -17 -23 c-9 -12 -14
-26 -11 -31 3 -4 1 -23 -4 -40 -5 -18 -10 -58 -12 -89 -1 -31 -9 -68 -18 -82
-11 -18 -11 -22 -2 -16 10 6 13 3 10 -10 -2 -11 -9 -18 -15 -17 -7 2 -15 -6
-18 -17 -4 -11 -12 -20 -18 -20 -7 0 -22 -11 -34 -24 -40 -42 -158 -23 -122
20 10 13 24 15 64 10 l50 -5 -25 20 -25 21 28 -6 c15 -4 27 -2 27 3 0 5 -13
12 -30 16 -16 4 -30 13 -30 20 0 17 39 24 62 11 27 -16 33 2 7 23 -18 14 -29
17 -48 9 -13 -5 -30 -7 -38 -4 -15 6 -17 65 -5 111 l9 30 -65 2 c-70 2 -85 8
-62 26 16 13 22 30 22 64 0 12 8 25 17 27 19 6 235 9 271 4 32 -4 70 -29 70
-45 0 -7 6 -13 13 -13 19 0 41 -40 28 -53 -13 -13 -14 -27 -2 -27 5 0 12 12
17 28 5 20 8 23 11 10 3 -10 10 -18 18 -18 22 0 26 -30 8 -61 -16 -28 -16 -30
1 -46 17 -17 18 -17 6 3 -11 17 -10 24 6 42 21 25 44 13 44 -22 0 -16 -2 -18
-9 -7 -5 7 -14 12 -22 9 -8 -3 -5 -11 10 -25 15 -14 20 -26 15 -35 -6 -10 -4
-10 9 1 9 7 17 24 17 36 0 13 5 25 11 27 7 2 9 13 5 26 -4 12 -11 20 -15 17
-5 -2 -16 4 -26 15 -10 11 -13 20 -7 20 6 0 14 -4 17 -10 3 -5 13 -10 22 -10
30 0 -12 44 -53 57 -25 7 -31 12 -17 12 25 1 39 16 23 26 -6 4 -8 11 -5 16 10
15 -12 10 -30 -7 -15 -16 -45 -13 -45 4 0 5 -13 15 -30 22 -16 7 -30 19 -30
26 0 8 -11 14 -26 14 -14 0 -32 7 -40 15 -12 12 -12 15 -2 15 10 0 9 3 -2 10
-22 14 -28 12 -35 -10 -5 -17 -15 -20 -70 -20 -35 0 -66 3 -68 8 -3 4 1 25 9
47 12 36 12 41 -3 53 -24 18 -43 15 -37 -5 4 -14 2 -13 -7 2 -24 39 -44 44
-59 16z m-180 -171 c0 -5 -10 -10 -22 -9 -22 0 -22 1 -3 9 11 5 21 9 23 9 1 1
2 -3 2 -9z m92 -17 c-6 -2 -10 -9 -6 -14 3 -5 -2 -9 -10 -9 -9 0 -16 4 -16 9
0 10 18 19 35 19 6 0 4 -2 -3 -5z m-18 -58 c19 -15 19 -15 -1 -15 -30 0 -54
11 -47 21 8 13 26 11 48 -6z m-144 -65 c0 -5 -5 -10 -11 -10 -5 0 -7 5 -4 10
3 6 8 10 11 10 2 0 4 -4 4 -10z m210 -35 c14 -17 80 -21 80 -5 0 6 4 10 8 10
12 0 13 -58 1 -65 -5 -4 -9 -19 -9 -36 0 -25 4 -29 28 -29 27 -1 27 -1 -7 -15
-41 -18 -41 -19 -41 1 0 13 -3 14 -13 5 -21 -17 -29 0 -12 25 14 22 5 42 -14
30 -13 -8 -61 40 -61 62 0 33 20 42 40 17z m410 -45 c0 -5 -7 -10 -15 -10 -8
0 -15 5 -15 10 0 6 7 10 15 10 8 0 15 -4 15 -10z m47 -20 c9 -13 9 -21 2 -26
-6 -4 3 -13 22 -23 l34 -16 -28 -3 c-40 -5 -62 21 -58 71 1 23 13 22 28 -3z
m-121 -17 c-10 -10 -19 5 -10 18 6 11 8 11 12 0 2 -7 1 -15 -2 -18z m-323 -65
c7 -25 0 -41 -14 -33 -12 8 -12 55 0 55 5 0 11 -10 14 -22z m437 -28 c0 -24
-15 -40 -38 -40 -24 0 -24 1 -8 19 15 16 15 20 1 31 -24 20 -7 31 21 14 13 -9
24 -20 24 -24z m25 20 c3 -5 2 -10 -4 -10 -5 0 -13 5 -16 10 -3 6 -2 10 4 10
5 0 13 -4 16 -10z m-435 -241 c0 -5 -4 -9 -10 -9 -5 0 -10 7 -10 16 0 8 5 12
10 9 6 -3 10 -10 10 -16z"/>
<path d="M2738 4283 c7 -3 16 -2 19 1 4 3 -2 6 -13 5 -11 0 -14 -3 -6 -6z"/>
<path d="M637 4633 c18 -2 50 -2 70 0 21 2 7 4 -32 4 -38 0 -55 -2 -38 -4z"/>
<path d="M1388 4633 c178 -2 466 -2 640 0 174 1 29 2 -323 2 -352 0 -495 -1
-317 -2z"/>
<path d="M4823 4613 c11 -3 16 -11 13 -20 -4 -9 -1 -13 6 -11 23 8 14 33 -12
35 -16 1 -18 0 -7 -4z"/>
<path d="M4743 4603 c-12 -2 -27 -11 -35 -20 -11 -14 -11 -15 7 -5 11 7 36 16
55 21 35 9 15 12 -27 4z"/>
<path d="M3040 4577 c0 -20 37 -29 44 -11 3 8 1 14 -3 14 -5 0 -16 3 -25 6
-10 4 -16 1 -16 -9z"/>
<path d="M4979 4538 c24 -32 45 -58 48 -58 7 0 -59 89 -76 103 -8 7 5 -14 28
-45z"/>
<path d="M1034 4569 c-3 -6 -4 -11 -3 -12 2 -1 20 -10 39 -20 23 -11 43 -33
56 -60 11 -24 28 -43 39 -45 18 -3 17 -2 -3 13 -13 9 -30 33 -38 53 -16 39
-79 88 -90 71z"/>
<path d="M4744 4560 c0 -13 4 -16 10 -10 7 7 7 13 0 20 -6 6 -10 3 -10 -10z"/>
<path d="M4786 4571 c-4 -5 3 -7 14 -4 23 6 26 13 6 13 -8 0 -17 -4 -20 -9z"/>
<path d="M4823 4557 c-31 -16 -41 -27 -37 -39 6 -20 -29 -38 -71 -38 -14 0
-29 -8 -35 -19 -15 -29 -12 -48 5 -25 11 15 14 16 15 3 0 -20 -56 -74 -64 -61
-10 16 -71 9 -71 -8 0 -11 10 -15 36 -14 44 1 104 46 118 86 16 44 41 29 41
-23 0 -16 3 -18 19 -9 32 16 43 13 29 -10 -7 -11 -20 -19 -28 -18 -15 3 -104
-72 -95 -80 2 -3 20 9 40 27 20 17 42 31 49 31 7 0 25 9 40 21 l26 21 64 -51
c64 -52 65 -52 80 -30 14 20 13 23 -9 40 -13 11 -27 19 -32 19 -18 0 -56 49
-49 65 7 20 -21 32 -37 16 -9 -9 -8 -11 6 -6 12 5 17 2 17 -10 0 -18 -12 -14
-48 19 -13 12 -27 20 -30 19 -4 -2 -7 3 -7 9 0 7 16 21 35 31 19 9 25 15 13
12 -13 -4 -23 -2 -23 4 0 6 6 11 13 11 6 0 21 7 31 15 29 22 8 17 -41 -8z
m-33 -127 c0 -5 -4 -10 -10 -10 -5 0 -10 5 -10 10 0 6 5 10 10 10 6 0 10 -4
10 -10z"/>
<path d="M2371 4556 c-10 -12 -7 -21 17 -47 28 -31 29 -31 34 -11 4 12 2 22
-4 22 -5 0 -7 4 -4 9 3 4 -3 16 -13 25 -16 14 -20 15 -30 2z"/>
<path d="M3207 4538 c-4 -12 -2 -27 3 -33 6 -7 7 -15 3 -18 -3 -4 -3 -7 2 -7
4 0 14 8 21 18 12 14 13 15 8 1 -9 -27 15 -33 25 -7 10 25 5 42 -10 33 -5 -4
-9 -2 -9 4 0 6 -9 15 -19 20 -15 9 -20 7 -24 -11z"/>
<path d="M4908 4543 c7 -3 16 -2 19 1 4 3 -2 6 -13 5 -11 0 -14 -3 -6 -6z"/>
<path d="M930 4533 c-44 -13 -44 -13 -24 -27 10 -7 28 -16 39 -20 16 -6 17 -5
8 5 -9 9 -9 16 -2 25 12 14 1 23 -21 17z"/>
<path d="M4884 4513 c-23 -4 -65 -43 -47 -43 6 0 16 7 23 15 7 8 18 15 26 15
7 0 16 5 19 10 3 6 5 9 3 9 -2 -1 -13 -4 -24 -6z"/>
<path d="M1033 4503 c9 -2 23 -2 30 0 6 3 -1 5 -18 5 -16 0 -22 -2 -12 -5z"/>
<path d="M3282 4486 c-9 -19 -8 -25 4 -30 10 -4 14 3 14 24 0 36 -3 37 -18 6z"/>
<path d="M643 4470 c-9 -16 -21 -30 -25 -30 -4 0 -8 -5 -8 -11 0 -8 4 -8 13
-1 14 12 50 72 43 72 -3 0 -13 -13 -23 -30z"/>
<path d="M2970 4485 c7 -9 15 -13 17 -11 7 7 -7 26 -19 26 -6 0 -6 -6 2 -15z"/>
<path d="M966 4427 c-9 -23 -16 -48 -16 -54 0 -14 108 -83 129 -83 9 0 49 -17
91 -39 41 -21 86 -42 100 -46 14 -4 66 -33 115 -65 50 -32 101 -61 115 -65 14
-3 -4 10 -40 30 -36 19 -87 53 -115 75 -102 80 -105 82 -99 65 6 -14 0 -13
-46 4 -29 11 -60 27 -69 35 -10 9 -26 16 -36 16 -17 0 -44 26 -45 42 0 4 10 7
21 5 38 -4 30 17 -12 35 -32 14 -40 22 -37 39 2 13 -5 27 -18 35 -20 14 -22
12 -38 -29z"/>
<path d="M5051 4437 c10 -18 28 -43 40 -57 20 -24 20 -24 -1 10 -12 19 -24 43
-27 52 -3 9 -11 19 -18 22 -9 3 -7 -6 6 -27z"/>
<path d="M1230 4405 c14 -8 30 -14 35 -14 6 0 -1 6 -15 14 -14 8 -29 14 -35
14 -5 0 1 -6 15 -14z"/>
<path d="M595 4400 c-3 -5 -1 -10 4 -10 6 0 11 5 11 10 0 6 -2 10 -4 10 -3 0
-8 -4 -11 -10z"/>
<path d="M1315 4369 c22 -10 49 -18 60 -18 11 0 -5 8 -35 19 -69 24 -77 24
-25 -1z"/>
<path d="M2857 4384 c-5 -6 19 -52 34 -64 3 -3 9 -12 12 -20 4 -12 6 -11 6 3
1 9 8 17 17 17 16 0 64 47 64 63 0 8 -124 10 -133 1z"/>
<path d="M4370 4380 c-9 -6 -10 -10 -3 -10 6 0 15 5 18 10 8 12 4 12 -15 0z"/>
<path d="M574 4368 c-4 -7 -14 -24 -22 -38 -14 -24 -13 -24 3 -5 20 24 37 55
31 55 -3 0 -8 -6 -12 -12z"/>
<path d="M3077 4373 c-4 -3 -7 -11 -7 -17 0 -6 5 -5 12 2 6 6 9 14 7 17 -3 3
-9 2 -12 -2z"/>
<path d="M1438 4348 c6 -6 18 -8 28 -6 14 3 12 5 -9 10 -19 3 -25 2 -19 -4z"/>
<path d="M1151 4336 c2 -2 15 -9 29 -16 23 -12 24 -12 11 3 -7 10 -20 17 -29
17 -8 0 -13 -2 -11 -4z"/>
<path d="M1528 4333 c7 -3 16 -2 19 1 4 3 -2 6 -13 5 -11 0 -14 -3 -6 -6z"/>
<path d="M4148 4323 c7 -3 16 -2 19 1 4 3 -2 6 -13 5 -11 0 -14 -3 -6 -6z"/>
<path d="M5140 4300 c6 -11 13 -20 16 -20 2 0 0 9 -6 20 -6 11 -13 20 -16 20
-2 0 0 -9 6 -20z"/>
<path d="M4050 4291 c-19 -10 -59 -31 -89 -46 -30 -15 -67 -40 -83 -55 -16
-16 -47 -33 -71 -38 -34 -8 -37 -10 -14 -11 34 -1 62 12 102 49 31 28 100 70
115 70 4 0 28 11 51 25 51 29 41 34 -11 6z"/>
<path d="M520 4280 c-6 -11 -8 -20 -6 -20 3 0 10 9 16 20 6 11 8 20 6 20 -3 0
-10 -9 -16 -20z"/>
<path d="M1627 4289 c7 -7 15 -10 18 -7 3 3 -2 9 -12 12 -14 6 -15 5 -6 -5z"/>
<path d="M4582 4284 c-12 -8 -35 -22 -50 -30 -15 -8 -20 -14 -11 -14 8 0 30
11 49 25 18 13 38 22 43 18 6 -3 7 -1 3 5 -9 15 -7 15 -34 -4z"/>
<path d="M1200 4281 c0 -5 7 -11 15 -15 8 -3 15 -1 15 3 0 5 -7 11 -15 15 -8
3 -15 1 -15 -3z"/>
<path d="M1731 4248 c2 -2 18 -14 34 -28 l30 -25 -24 28 c-14 15 -29 27 -34
27 -6 0 -8 -1 -6 -2z"/>
<path d="M5185 4220 c9 -16 18 -30 21 -30 2 0 -2 14 -11 30 -9 17 -18 30 -21
30 -2 0 2 -13 11 -30z"/>
<path d="M439 4129 c-27 -56 -49 -103 -47 -105 2 -2 27 44 56 101 28 58 50
105 47 105 -3 0 -28 -45 -56 -101z"/>
<path d="M912 4182 c1 -18 -1 -34 -3 -37 -4 -4 -148 -12 -243 -14 l-39 -1 6
-115 c4 -95 3 -115 -9 -115 -8 0 -14 -9 -14 -21 0 -11 4 -18 9 -15 4 3 17 -1
27 -8 18 -14 18 -15 -9 -27 -15 -7 -27 -16 -27 -21 0 -11 17 -10 25 2 10 16
28 12 21 -5 -3 -8 -1 -15 4 -15 6 0 10 -29 10 -65 0 -58 2 -65 20 -65 13 0 20
-7 20 -19 0 -23 19 -31 68 -31 56 0 82 10 82 31 0 11 4 19 9 19 5 0 7 -9 4
-20 -4 -16 -2 -19 11 -14 12 4 16 19 16 55 0 54 10 60 66 38 20 -7 41 -7 74 1
35 8 71 7 160 -4 63 -9 126 -18 140 -21 14 -3 0 4 -30 15 -30 10 -65 20 -77
20 -16 0 -23 6 -23 20 0 11 -4 20 -10 20 -5 0 -10 -7 -10 -15 0 -18 -12 -19
-28 -3 -10 10 -17 10 -31 1 -26 -17 -31 -8 -31 60 0 46 3 58 14 54 7 -3 18 -1
24 5 16 16 50 -8 55 -39 l4 -28 2 27 c1 21 7 29 29 34 15 3 38 10 52 15 24 8
24 8 -5 8 -16 -1 -69 -1 -116 0 -78 1 -90 4 -130 31 -24 16 -56 30 -71 30
l-26 0 0 114 c0 63 -5 122 -10 132 -9 16 -11 14 -10 -14z m-201 -122 c7 -24 7
-24 8 -2 1 17 7 22 26 22 14 0 25 -6 25 -12 0 -9 4 -8 10 2 8 13 13 13 31 2
11 -8 18 -9 14 -3 -3 6 1 11 9 11 10 0 16 -9 16 -25 0 -27 -18 -33 -38 -13 -9
9 -12 9 -12 0 0 -16 -30 -16 -31 1 0 10 -2 10 -6 0 -3 -8 -23 -13 -49 -13 -46
0 -62 14 -50 46 9 23 39 13 47 -16z m170 -7 c13 -16 12 -17 -3 -4 -10 7 -18
15 -18 17 0 8 8 3 21 -13z m128 -137 c6 -8 25 -19 41 -26 27 -11 30 -17 30
-55 0 -48 -14 -59 -58 -49 -37 9 -52 23 -52 48 0 26 -46 46 -106 46 -42 0 -73
13 -56 24 6 3 13 2 17 -4 4 -6 12 -5 22 5 11 12 27 14 63 9 30 -4 50 -2 54 5
10 15 31 14 45 -3z m-49 -136 c10 -5 41 -10 69 -11 54 -2 64 -11 32 -29 -26
-13 -61 -13 -116 2 -43 12 -59 31 -32 41 19 8 27 8 47 -3z"/>
<path d="M675 4069 c-9 -14 -2 -20 14 -10 8 6 9 11 3 15 -6 3 -14 1 -17 -5z"/>
<path d="M4410 4200 c-9 -6 -10 -10 -3 -10 6 0 15 5 18 10 8 12 4 12 -15 0z"/>
<path d="M1827 4159 c7 -7 15 -10 18 -7 3 3 -2 9 -12 12 -14 6 -15 5 -6 -5z"/>
<path d="M4805 4110 c-4 -36 -5 -80 -3 -99 l3 -34 63 -3 c34 -1 70 -8 78 -15
13 -10 17 -10 24 0 5 10 9 10 15 2 5 -9 10 -9 21 0 16 13 21 149 5 149 -4 0
-6 11 -3 25 4 22 1 25 -22 25 -14 0 -26 -6 -26 -12 0 -7 -11 -18 -25 -24 -23
-11 -24 -10 -18 17 5 29 5 29 -41 29 -37 0 -46 -3 -47 -17 0 -15 -2 -15 -8 2
-6 15 -10 2 -16 -45z"/>
<path d="M4305 4134 l-30 -26 32 16 c17 9 35 20 38 26 11 18 -9 10 -40 -16z"/>
<path d="M1978 4133 c7 -3 16 -2 19 1 4 3 -2 6 -13 5 -11 0 -14 -3 -6 -6z"/>
<path d="M2018 4123 c7 -3 16 -2 19 1 4 3 -2 6 -13 5 -11 0 -14 -3 -6 -6z"/>
<path d="M3670 4120 c-18 -12 -2 -12 25 0 13 6 15 9 5 9 -8 0 -22 -4 -30 -9z"/>
<path d="M4230 4090 c-19 -11 -31 -19 -27 -20 11 0 67 29 67 35 0 7 -1 7 -40
-15z"/>
<path d="M3600 4090 c-9 -6 -10 -10 -3 -10 6 0 15 5 18 10 8 12 4 12 -15 0z"/>
<path d="M5033 4045 c0 -33 2 -45 4 -27 2 18 2 45 0 60 -2 15 -4 0 -4 -33z"/>
<path d="M2130 4074 c0 -9 59 -33 64 -26 3 5 -10 14 -29 20 -19 5 -35 8 -35 6z"/>
<path d="M1538 4063 c7 -3 16 -2 19 1 4 3 -2 6 -13 5 -11 0 -14 -3 -6 -6z"/>
<path d="M2360 4055 c7 -8 22 -15 34 -15 18 0 17 2 -8 15 -36 19 -42 19 -26 0z"/>
<path d="M3318 4063 c7 -3 16 -2 19 1 4 3 -2 6 -13 5 -11 0 -14 -3 -6 -6z"/>
<path d="M3498 4059 c15 -6 21 -13 16 -21 -5 -8 -1 -8 10 2 17 13 17 14 -1 21
-10 4 -25 8 -33 8 -8 0 -5 -4 8 -10z"/>
<path d="M4125 4049 c-27 -12 -68 -27 -90 -34 -23 -8 -31 -14 -20 -14 17 -1
161 53 174 65 10 9 -18 2 -64 -17z"/>
<path d="M1570 4057 c3 -2 23 -10 44 -16 22 -6 35 -6 30 -1 -10 10 -83 27 -74
17z"/>
<path d="M3250 4034 c-35 -24 -35 -24 -7 -22 15 1 27 8 27 15 0 6 8 17 18 22
9 6 13 10 7 10 -5 0 -26 -11 -45 -25z"/>
<path d="M2936 4034 c-4 -9 -4 -19 -1 -22 2 -3 7 3 11 12 4 9 4 19 1 22 -2 3
-7 -3 -11 -12z"/>
<path d="M5280 4035 c0 -5 5 -17 10 -25 5 -8 10 -10 10 -5 0 6 -5 17 -10 25
-5 8 -10 11 -10 5z"/>
<path d="M1671 4020 c9 -6 39 -12 65 -15 60 -6 29 9 -36 18 -30 4 -39 3 -29
-3z"/>
<path d="M1790 3995 c0 -6 50 -31 80 -39 14 -4 5 5 -20 18 -45 25 -60 30 -60
21z"/>
<path d="M366 3975 c-9 -26 -7 -32 5 -12 6 10 9 21 6 23 -2 3 -7 -2 -11 -11z"/>
<path d="M5310 3965 c0 -5 5 -17 10 -25 5 -8 10 -10 10 -5 0 6 -5 17 -10 25
-5 8 -10 11 -10 5z"/>
<path d="M2413 3943 c9 -2 23 -2 30 0 6 3 -1 5 -18 5 -16 0 -22 -2 -12 -5z"/>
<path d="M3136 3936 c4 -10 1 -16 -9 -16 -20 0 -31 -17 -14 -22 6 -3 20 3 29
13 14 15 15 19 2 30 -12 10 -13 9 -8 -5z"/>
<path d="M3333 3942 c-13 -2 -23 -8 -23 -13 0 -6 10 -7 23 -4 38 12 41 11 42
-17 1 -39 15 -48 15 -10 0 18 5 32 10 32 6 0 10 4 10 9 0 9 -32 11 -77 3z"/>
<path d="M346 3925 c-9 -26 -7 -32 5 -12 6 10 9 21 6 23 -2 3 -7 -2 -11 -11z"/>
<path d="M1941 3936 c2 -1 20 -8 39 -14 32 -11 33 -10 16 3 -16 12 -69 23 -55
11z"/>
<path d="M2255 3930 c-16 -7 -17 -9 -3 -9 9 -1 20 4 23 9 7 11 7 11 -20 0z"/>
<path d="M2330 3930 c-13 -9 -13 -10 0 -10 8 0 22 5 30 10 13 9 13 10 0 10 -8
0 -22 -5 -30 -10z"/>
<path d="M3178 3933 c7 -3 16 -2 19 1 4 3 -2 6 -13 5 -11 0 -14 -3 -6 -6z"/>
<path d="M3268 3933 c7 -3 16 -2 19 1 4 3 -2 6 -13 5 -11 0 -14 -3 -6 -6z"/>
<path d="M3720 3905 c-59 -38 -81 -43 -99 -21 -6 8 -22 16 -34 19 -12 2 -31 8
-42 11 -11 4 -3 -2 17 -13 48 -27 54 -39 26 -51 -21 -9 -20 -10 7 -5 17 3 80
8 142 12 115 6 156 -1 196 -35 15 -13 17 -13 17 1 0 8 6 18 13 21 6 4 1 4 -12
2 -13 -3 -40 2 -59 10 -19 7 -65 14 -103 14 -37 0 -70 4 -74 10 -3 5 12 18 35
30 37 19 50 30 33 30 -5 0 -33 -16 -63 -35z"/>
<path d="M4671 3910 c-25 -17 -57 -30 -75 -30 -36 0 -110 -19 -103 -26 3 -3
20 -2 39 3 64 17 70 11 66 -77 l-3 -79 45 -5 c25 -3 72 1 105 8 33 8 54 14 47
15 -8 1 -11 10 -7 29 5 24 4 25 -4 5 -13 -29 -42 -43 -91 -43 -27 0 -43 5 -46
15 -8 21 13 44 35 38 24 -6 97 31 111 56 6 12 24 21 43 24 17 2 1 4 -38 5 -38
0 -63 -2 -55 -5 8 -2 21 -7 29 -9 24 -8 -8 -31 -51 -37 -29 -4 -42 -1 -61 17
-13 12 -29 20 -35 18 -7 -2 -12 6 -12 17 0 12 6 21 14 21 8 0 29 12 47 27 20
17 50 30 78 34 l46 6 -40 1 c-29 1 -52 -6 -84 -28z"/>
<path d="M3030 3910 c0 -5 12 -10 28 -10 21 0 24 2 12 10 -20 13 -40 13 -40 0z"/>
<path d="M2029 3897 c10 -13 8 -16 -11 -20 -20 -4 -20 -4 5 -6 15 0 54 -12 87
-26 33 -14 67 -25 77 -24 10 0 -4 7 -30 15 -36 11 -47 19 -43 30 3 9 2 12 -4
9 -6 -4 -29 3 -52 15 -28 14 -38 17 -29 7z"/>
<path d="M2144 3895 c-18 -13 -18 -14 4 -8 12 3 25 9 28 14 8 14 -10 11 -32
-6z"/>
<path d="M1323 3893 c9 -2 25 -2 35 0 9 3 1 5 -18 5 -19 0 -27 -2 -17 -5z"/>
<path d="M1390 3897 c10 -9 180 -19 180 -10 0 4 -42 9 -92 11 -51 2 -90 1 -88
-1z"/>
<path d="M1635 3889 c33 -5 65 -16 71 -24 6 -8 22 -15 35 -15 20 1 16 5 -21
25 -31 17 -60 24 -95 23 l-50 0 60 -9z"/>
<path d="M4870 3887 c27 -15 36 -14 25 2 -3 6 -16 11 -28 11 -21 0 -21 -1 3
-13z"/>
<path d="M4021 3871 c-8 -5 5 -7 35 -4 27 3 51 7 53 9 9 8 -75 3 -88 -5z"/>
<path d="M5048 3860 c-7 -24 -3 -38 8 -28 3 4 4 17 2 30 l-3 23 -7 -25z"/>
<path d="M4338 3863 c7 -3 16 -2 19 1 4 3 -2 6 -13 5 -11 0 -14 -3 -6 -6z"/>
<path d="M1788 3843 c7 -3 16 -2 19 1 4 3 -2 6 -13 5 -11 0 -14 -3 -6 -6z"/>
<path d="M2250 3823 c0 -19 11 -43 21 -43 13 0 11 14 -6 36 -8 10 -15 14 -15
7z"/>
<path d="M3444 3794 c-18 -14 -18 -15 4 -4 12 6 22 13 22 15 0 8 -5 6 -26 -11z"/>
<path d="M1123 3773 c9 -2 25 -2 35 0 9 3 1 5 -18 5 -19 0 -27 -2 -17 -5z"/>
<path d="M3354 3729 c-21 -22 -24 -28 -10 -23 17 7 18 4 13 -26 -7 -31 -73
-130 -88 -130 -4 0 -9 10 -13 23 -11 41 -6 76 12 87 11 8 12 10 2 7 -8 -2 -27
-24 -41 -50 -37 -69 -81 -108 -128 -114 -36 -5 -38 -4 -34 19 4 23 2 24 -54
23 -32 -1 -73 2 -91 6 -43 9 -50 -6 -9 -21 17 -7 47 -19 66 -27 44 -20 162
-14 188 9 10 9 32 18 48 20 25 2 31 -1 33 -19 2 -13 7 -23 11 -23 4 0 6 -15 4
-32 -3 -27 -1 -29 6 -13 12 25 14 72 4 78 -5 2 -3 3 3 1 5 -1 23 20 38 47 15
28 41 56 58 65 22 11 27 18 18 24 -13 8 -10 47 5 83 11 27 -8 20 -41 -14z
m-349 -209 c3 -5 2 -10 -4 -10 -5 0 -13 5 -16 10 -3 6 -2 10 4 10 5 0 13 -4
16 -10z"/>
<path d="M2339 3703 c11 -17 21 -36 21 -42 0 -6 9 -15 20 -21 15 -8 20 -21 20
-52 0 -35 -2 -39 -15 -28 -22 18 -19 -3 7 -53 13 -23 26 -53 29 -67 6 -24 7
-24 8 5 1 19 11 36 27 48 23 17 27 18 43 3 10 -9 33 -16 52 -16 33 0 34 1 10
13 -40 20 -39 39 2 36 20 -2 39 0 43 4 4 4 -11 7 -34 7 -22 0 -44 5 -47 10 -4
6 -15 8 -26 5 -11 -4 -19 -2 -19 4 0 6 5 11 11 11 5 0 2 13 -8 30 -9 17 -23
30 -30 30 -6 0 -18 8 -25 19 -7 10 -23 21 -36 25 -12 4 -34 20 -49 34 l-26 27
22 -32z"/>
<path d="M1720 3700 c0 -5 5 -10 11 -10 5 0 7 5 4 10 -3 6 -8 10 -11 10 -2 0
-4 -4 -4 -10z"/>
<path d="M1773 3693 c9 -2 23 -2 30 0 6 3 -1 5 -18 5 -16 0 -22 -2 -12 -5z"/>
<path d="M1998 3688 c5 -5 16 -8 23 -6 8 3 3 7 -10 11 -17 4 -21 3 -13 -5z"/>
<path d="M4322 3677 c-40 -11 -71 -22 -68 -24 2 -2 32 4 67 13 35 10 100 21
144 24 l80 7 -75 0 c-46 0 -103 -7 -148 -20z"/>
<path d="M3925 3680 c-3 -5 -1 -10 4 -10 6 0 11 5 11 10 0 6 -2 10 -4 10 -3 0
-8 -4 -11 -10z"/>
<path d="M1503 3673 c37 -2 96 -2 130 0 34 2 4 3 -68 3 -71 0 -99 -1 -62 -3z"/>
<path d="M2250 3670 c0 -6 7 -10 15 -10 8 0 15 2 15 4 0 2 -7 6 -15 10 -8 3
-15 1 -15 -4z"/>
<path d="M3625 3670 c-13 -6 -5 -7 25 -3 25 3 47 7 49 9 9 8 -55 2 -74 -6z"/>
<path d="M3833 3673 c9 -2 23 -2 30 0 6 3 -1 5 -18 5 -16 0 -22 -2 -12 -5z"/>
<path d="M3480 3660 c25 -8 127 -13 119 -6 -2 2 -35 6 -74 9 -41 3 -60 2 -45
-3z"/>
<path d="M2143 3653 c9 -2 23 -2 30 0 6 3 -1 5 -18 5 -16 0 -22 -2 -12 -5z"/>
<path d="M2318 3640 c17 -11 32 -25 32 -30 0 -6 5 -8 11 -5 15 10 -30 55 -55
55 -17 0 -15 -4 12 -20z"/>
<path d="M4028 3653 c7 -3 16 -2 19 1 4 3 -2 6 -13 5 -11 0 -14 -3 -6 -6z"/>
<path d="M5421 3644 c0 -11 3 -14 6 -6 3 7 2 16 -1 19 -3 4 -6 -2 -5 -13z"/>
<path d="M4098 3643 c6 -2 18 -2 25 0 6 3 1 5 -13 5 -14 0 -19 -2 -12 -5z"/>
<path d="M4954 3631 c-3 -3 -29 -8 -57 -12 -47 -6 -44 -6 30 -8 68 -1 81 2 77
13 -5 14 -39 18 -50 7z"/>
<path d="M4840 3590 c20 -13 40 -13 40 0 0 6 -12 10 -27 10 -22 0 -25 -2 -13
-10z"/>
<path d="M4970 3590 l-25 -8 28 -1 c15 -1 27 4 27 9 0 6 -1 10 -2 9 -2 -1 -14
-5 -28 -9z"/>
<path d="M2775 3530 c-3 -5 -16 -11 -28 -11 -16 -1 -17 -3 -5 -6 9 -2 29 3 45
11 19 10 22 15 11 16 -9 0 -20 -4 -23 -10z"/>
<path d="M5451 3524 c0 -11 3 -14 6 -6 3 7 2 16 -1 19 -3 4 -6 -2 -5 -13z"/>
<path d="M221 3514 c0 -11 3 -14 6 -6 3 7 2 16 -1 19 -3 4 -6 -2 -5 -13z"/>
<path d="M211 3474 c0 -11 3 -14 6 -6 3 7 2 16 -1 19 -3 4 -6 -2 -5 -13z"/>
<path d="M5472 3430 c0 -14 2 -19 5 -12 2 6 2 18 0 25 -3 6 -5 1 -5 -13z"/>
<path d="M201 3414 c0 -11 3 -14 6 -6 3 7 2 16 -1 19 -3 4 -6 -2 -5 -13z"/>
<path d="M5481 3374 c0 -11 3 -14 6 -6 3 7 2 16 -1 19 -3 4 -6 -2 -5 -13z"/>
<path d="M192 3360 c0 -14 2 -19 5 -12 2 6 2 18 0 25 -3 6 -5 1 -5 -13z"/>
<path d="M5492 3310 c0 -14 2 -19 5 -12 2 6 2 18 0 25 -3 6 -5 1 -5 -13z"/>
<path d="M182 3300 c0 -14 2 -19 5 -12 2 6 2 18 0 25 -3 6 -5 1 -5 -13z"/>
<path d="M5502 3235 c0 -16 2 -22 5 -12 2 9 2 23 0 30 -3 6 -5 -1 -5 -18z"/>
<path d="M172 3215 c0 -16 2 -22 5 -12 2 9 2 23 0 30 -3 6 -5 -1 -5 -18z"/>
<path d="M5513 3125 c0 -22 2 -30 4 -17 2 12 2 30 0 40 -3 9 -5 -1 -4 -23z"/>
<path d="M163 3085 c0 -33 2 -45 4 -27 2 18 2 45 0 60 -2 15 -4 0 -4 -33z"/>
<path d="M2516 3127 c3 -10 9 -15 12 -12 3 3 0 11 -7 18 -10 9 -11 8 -5 -6z"/>
<path d="M3180 3001 c0 -6 4 -13 10 -16 6 -3 7 1 4 9 -7 18 -14 21 -14 7z"/>
<path d="M5521 2924 c0 -11 3 -14 6 -6 3 7 2 16 -1 19 -3 4 -6 -2 -5 -13z"/>
<path d="M2832 2909 c2 -6 8 -10 13 -10 5 0 11 4 13 10 2 6 -4 11 -13 11 -9 0
-15 -5 -13 -11z"/>
<path d="M2478 2877 c-4 -20 -1 -23 14 -19 15 4 16 7 6 21 -7 9 -13 17 -14 19
-1 2 -4 -8 -6 -21z"/>
<path d="M3184 2831 c3 -18 6 -40 6 -47 0 -8 4 -14 9 -14 5 0 5 18 -1 42 -11
51 -24 67 -14 19z"/>
<path d="M2455 2829 c-4 -6 -5 -12 -2 -15 2 -3 7 2 10 11 7 17 1 20 -8 4z"/>
<path d="M163 2765 c0 -33 2 -45 4 -27 2 18 2 45 0 60 -2 15 -4 0 -4 -33z"/>
<path d="M2430 2763 c-8 -15 -16 -32 -19 -37 -2 -5 4 -6 13 -3 9 4 16 3 16 -2
0 -5 10 -11 22 -15 18 -4 20 -8 10 -18 -6 -6 -12 -17 -12 -22 0 -6 9 0 20 14
11 14 20 21 20 17 0 -7 -18 -46 -25 -55 -5 -6 -55 22 -55 30 0 5 4 7 8 4 4 -2
8 4 8 15 0 10 -3 19 -7 19 -10 0 -35 -32 -54 -70 -39 -77 -46 -88 -61 -94 -11
-4 -13 -13 -9 -28 4 -16 3 -19 -3 -10 -6 10 -15 0 -30 -37 -12 -27 -22 -59
-22 -70 0 -11 -4 -22 -9 -25 -14 -9 -48 -87 -64 -147 -8 -30 -18 -62 -22 -71
-7 -16 -4 -17 45 -2 63 19 72 16 55 -16 -12 -20 -14 -22 -15 -6 0 12 -5 16
-16 12 -9 -3 -23 -6 -32 -6 -23 -1 -71 -42 -55 -47 7 -2 9 -11 6 -19 -4 -10 3
-14 26 -14 34 0 36 -2 20 -31 -8 -16 -13 -18 -25 -8 -27 22 -58 16 -81 -17
-27 -39 -32 -86 -13 -110 14 -17 13 -17 -16 1 -42 24 -60 15 -67 -31 -8 -45
23 -99 60 -109 13 -3 23 -10 23 -16 0 -6 4 -8 9 -5 5 3 11 -4 14 -15 4 -15 11
-20 21 -16 19 8 48 -2 41 -13 -10 -15 37 -22 101 -15 35 4 64 10 64 14 0 3 16
15 35 25 19 11 35 26 35 35 -1 14 -2 13 -11 -1 -5 -10 -17 -18 -26 -18 -14 0
-14 2 -1 22 9 13 26 25 38 28 43 10 35 30 -12 31 -75 1 -162 21 -173 39 -3 6
-15 10 -25 10 -10 0 -32 11 -48 25 -17 14 -35 25 -42 25 -6 0 -8 5 -5 10 5 8
12 7 22 -2 9 -7 21 -13 27 -14 30 -3 36 -5 48 -17 33 -33 282 -78 263 -48 -3
6 -30 10 -59 10 -46 -1 -139 20 -171 40 -5 3 -12 6 -15 6 -24 3 -50 19 -50 31
0 20 23 17 53 -6 14 -11 29 -20 34 -18 10 2 94 -23 108 -32 6 -4 34 -6 63 -4
37 3 51 0 46 -7 -6 -10 10 -8 54 8 8 3 12 -4 12 -22 0 -23 -4 -26 -28 -24 -42
5 -49 -5 -50 -75 -1 -57 2 -68 21 -82 l22 -16 -22 7 c-19 5 -23 2 -24 -17 0
-13 -2 -35 -4 -49 -6 -46 17 -60 98 -60 9 0 15 -4 12 -9 -3 -4 3 -11 12 -14 9
-4 20 -1 24 5 4 7 19 9 42 5 41 -8 118 23 142 56 14 21 35 17 35 -6 0 -25 107
-85 152 -86 14 0 29 6 31 13 4 9 6 9 6 0 1 -16 28 -17 33 -2 2 5 19 11 38 13
38 3 62 33 75 94 7 32 6 34 -16 27 l-24 -8 23 19 c13 11 23 28 23 39 -1 11 -1
36 -1 55 -1 58 -7 67 -40 62 -27 -4 -30 -1 -30 22 0 29 3 30 30 16 24 -13 161
-16 220 -5 25 5 49 8 53 7 4 -1 18 4 30 13 23 16 57 20 57 6 0 -5 -12 -13 -27
-19 -74 -28 -115 -36 -194 -36 -65 -1 -85 -4 -82 -13 3 -7 14 -13 24 -13 21 0
48 -45 35 -58 -4 -4 -14 2 -23 13 -15 20 -15 20 -11 0 2 -11 14 -25 27 -31 13
-7 26 -16 30 -21 18 -27 182 -48 165 -22 -4 8 1 9 16 4 17 -6 21 -4 14 6 -6
12 -5 12 8 1 12 -10 18 -9 28 3 7 8 9 15 4 15 -15 1 25 21 49 25 26 5 67 52
67 77 0 25 -22 68 -34 68 -7 0 -23 -7 -36 -16 -18 -11 -16 -7 8 15 36 34 40
43 15 34 -12 -5 -15 -2 -10 10 6 17 -30 103 -40 93 -4 -3 -12 -1 -20 5 -8 7
-13 8 -13 1 0 -5 -9 -12 -19 -15 -13 -3 -22 3 -30 19 -10 23 -9 24 24 24 26 0
33 3 29 15 -4 9 -1 15 7 15 21 0 -32 44 -69 57 -28 9 -33 9 -28 -3 3 -8 2 -13
-3 -10 -14 9 -20 46 -7 46 6 0 29 -9 51 -20 43 -22 51 -21 36 8 -5 10 -8 28
-5 39 7 27 -14 132 -32 158 -8 11 -14 31 -14 45 0 41 -29 129 -50 150 -10 10
-16 20 -14 23 3 3 -4 21 -16 41 -11 20 -20 42 -20 50 0 7 -15 30 -33 52 -19
21 -36 44 -38 51 -3 8 -21 4 -59 -12 -30 -13 -63 -24 -72 -25 -10 0 -15 -5
-12 -13 6 -17 -42 -41 -52 -26 -4 6 0 16 7 21 9 6 -6 8 -46 4 -182 -16 -243
-17 -278 -8 -24 7 -39 7 -43 1 -3 -6 -15 -4 -30 5 -13 9 -30 16 -38 16 -8 0
-36 11 -62 25 -26 14 -55 25 -66 25 -10 0 -22 9 -26 21 -8 20 -9 19 -22 -8z
m823 -77 c3 -8 1 -17 -6 -20 -7 -2 -3 -5 8 -5 17 -1 17 -3 5 -11 -8 -5 -18
-10 -21 -10 -9 0 -28 47 -22 54 11 11 31 6 36 -8z m-705 -47 c-11 -31 -19 -35
-49 -19 -18 10 -18 13 -4 40 14 26 18 28 39 19 21 -10 23 -15 14 -40z m82 34
c0 4 6 2 13 -5 11 -10 11 -17 -1 -40 -16 -34 -46 -51 -72 -43 -24 8 -25 14 -1
44 15 20 21 22 39 12 12 -7 23 -7 27 -2 3 5 -4 12 -15 16 -21 7 -25 16 -13 28
4 4 10 2 15 -5 4 -7 8 -9 8 -5z m579 -10 c13 -29 7 -38 -37 -49 -27 -8 -28 -7
-37 27 -6 23 -3 28 22 37 39 15 38 15 52 -15z m-285 -2 c3 -5 -6 -11 -19 -14
-25 -4 -40 4 -28 17 9 9 41 7 47 -3z m83 -17 c-3 -4 -14 -3 -24 0 -15 6 -15 8
-3 16 16 10 39 -4 27 -16z m-152 6 c3 -6 -4 -10 -17 -10 -18 0 -20 2 -8 10 19
12 18 12 25 0z m259 -21 c13 -27 13 -31 -1 -36 -14 -5 -14 -7 1 -15 26 -15 18
-27 -14 -23 -16 2 -30 0 -30 -5 0 -6 -11 -10 -24 -10 -13 0 -42 -7 -65 -15
-23 -8 -45 -14 -49 -13 -4 1 -20 -4 -35 -10 -31 -13 -51 -15 -60 -6 -9 9 4 35
14 28 5 -3 9 2 9 11 0 10 -7 15 -17 13 -14 -2 -18 4 -18 32 0 30 3 35 24 35
30 0 53 -51 30 -66 -30 -18 6 -22 69 -6 58 15 95 22 137 26 6 1 2 8 -8 15 -13
10 -27 11 -52 5 -19 -5 -51 -13 -70 -18 -33 -9 -36 -7 -50 19 -20 38 -20 37
21 42 25 3 38 0 41 -10 4 -10 8 -11 13 -2 5 9 16 8 40 -5 32 -17 33 -17 27 4
-4 15 2 22 22 30 14 5 27 10 28 10 1 1 8 -13 17 -30z m-405 12 c9 -6 10 -10 2
-16 -16 -9 -44 2 -36 15 8 12 16 12 34 1z m-251 -31 c28 -14 52 -31 52 -37 0
-17 2 -18 -68 18 -34 17 -59 35 -56 40 3 6 9 9 12 7 4 -2 31 -14 60 -28z m282
-1 c0 -5 4 -8 9 -5 10 7 48 -20 40 -29 -4 -3 -23 2 -43 13 -19 11 -33 22 -29
26 10 10 23 7 23 -5z m555 1 c3 -5 -11 -14 -32 -20 -21 -6 -49 -17 -63 -25
-25 -14 -25 -14 -2 -15 12 0 39 7 59 15 42 18 53 19 53 5 0 -15 -44 -30 -91
-32 -22 -1 -42 -5 -45 -10 -3 -4 -23 -8 -44 -8 -21 0 -41 -4 -44 -9 -3 -4 -38
-16 -78 -25 -101 -24 -108 -26 -108 -35 0 -8 26 -7 50 2 36 14 130 37 149 37
12 0 21 4 21 9 0 12 56 19 72 10 9 -6 1 -13 -22 -23 -19 -8 -38 -12 -43 -9 -4
2 -13 0 -20 -5 -7 -5 -28 -13 -47 -17 -44 -9 -100 -25 -122 -36 -9 -4 -57 -9
-107 -10 -50 -2 -91 -6 -91 -10 0 -4 46 -7 101 -6 95 2 103 0 116 -20 8 -12
12 -31 8 -42 -5 -16 -3 -20 9 -15 10 4 16 1 16 -9 0 -26 -30 -29 -40 -4 -8 21
-9 21 -9 -5 -1 -24 -5 -28 -31 -28 -27 0 -30 3 -31 33 -2 30 -2 30 -6 5 -5
-33 -23 -38 -23 -6 0 21 0 21 -15 2 -8 -10 -15 -27 -15 -36 0 -12 -8 -18 -25
-18 -17 0 -25 6 -26 18 -1 16 -2 16 -6 0 -2 -10 -9 -18 -14 -18 -5 0 -10 8
-10 18 -1 15 -2 15 -6 1 -2 -9 -15 -19 -29 -22 -18 -3 -24 0 -24 14 0 11 -1
22 -2 26 -2 3 23 7 55 8 43 1 56 -2 53 -12 -3 -7 -1 -15 4 -18 5 -3 12 6 16
20 3 14 10 25 15 25 5 0 9 3 9 8 0 4 -36 6 -81 4 l-81 -4 13 24 c6 13 18 27
25 31 22 13 16 27 -13 37 -36 13 -58 23 -108 46 -22 10 -44 19 -50 19 -26 3
-54 17 -59 30 -9 24 37 18 70 -7 16 -13 30 -22 31 -20 5 5 116 -38 131 -50 9
-8 16 -8 24 0 8 8 6 13 -8 18 -53 17 -105 38 -204 81 -19 8 -46 17 -60 19 -52
9 -90 26 -90 40 0 18 2 18 50 -7 22 -12 54 -22 70 -24 15 -1 41 -7 57 -13 182
-69 203 -79 203 -99 0 -11 24 -12 36 -1 3 4 29 5 58 2 36 -3 45 -2 30 5 -11 5
-40 10 -65 12 -24 2 -48 9 -54 14 -5 6 -28 17 -50 24 -22 8 -58 22 -79 32 -22
11 -51 19 -64 19 -15 0 -22 5 -19 13 2 6 8 11 13 11 23 -3 181 -58 199 -69 46
-29 114 -27 245 8 30 8 80 20 112 27 36 8 55 17 52 25 -3 7 17 20 53 33 70 24
70 24 78 12z m-591 -15 c3 -9 19 -21 36 -26 16 -6 30 -18 30 -26 0 -11 -5 -13
-17 -8 -10 4 -36 14 -58 22 -22 7 -47 16 -55 19 -11 4 -9 9 10 19 33 19 47 18
54 0z m-285 -55 c23 -6 41 -15 41 -20 0 -12 -37 -13 -44 -1 -3 4 -19 11 -36
14 -16 4 -30 12 -30 18 0 6 6 9 14 6 8 -3 33 -11 55 -17z m388 -10 c1 -11 -2
-20 -8 -20 -5 0 -9 9 -9 20 0 11 4 20 8 20 4 0 8 -9 9 -20z m511 -2 c-5 -13
-96 -33 -106 -23 -13 12 10 20 101 34 5 0 7 -5 5 -11z m-878 -44 c0 -9 -24
-54 -29 -54 -12 0 -33 18 -31 26 6 27 21 42 40 37 11 -3 20 -7 20 -9z m924 0
c3 -8 2 -12 -4 -9 -6 3 -10 10 -10 16 0 14 7 11 14 -7z m-1024 -8 c0 -2 -7 -7
-16 -10 -8 -3 -12 -2 -9 4 6 10 25 14 25 6z m925 -5 c-3 -5 -1 -12 4 -16 14
-8 2 -35 -15 -35 -15 0 -35 39 -27 53 2 4 13 7 24 7 11 0 18 -4 14 -9z m-755
-11 c13 -8 13 -12 1 -32 -8 -13 -21 -35 -28 -50 -13 -24 -17 -26 -39 -16 -13
6 -24 17 -24 25 0 16 5 16 30 3 11 -6 21 -6 25 -1 3 5 -4 12 -15 16 -23 7 -25
17 -8 45 14 22 34 25 58 10z m695 -22 c10 -21 12 -34 5 -36 -5 -2 -10 -8 -10
-13 0 -4 7 -6 15 -3 24 10 18 -22 -7 -35 -22 -11 -22 -11 5 -7 23 3 30 -1 38
-21 13 -35 12 -38 -17 -51 -23 -11 -26 -10 -39 21 -22 53 -30 91 -16 83 6 -4
11 -2 11 3 0 6 -7 11 -15 11 -14 0 -35 29 -35 48 0 7 23 22 47 31 1 1 9 -14
18 -31z m136 5 c13 -16 12 -17 -3 -4 -10 7 -18 15 -18 17 0 8 8 3 21 -13z
m-766 -13 c25 -9 25 -11 10 -40 -17 -34 -23 -36 -49 -17 -15 11 -16 17 -5 40
7 15 13 27 15 27 1 0 14 -4 29 -10z m549 -17 c11 -40 -32 -60 -54 -25 -9 15
-10 14 -5 -5 9 -33 -11 -28 -24 5 -11 27 -11 27 -5 -5 3 -19 1 -33 -4 -33 -6
0 -17 -2 -24 -5 -9 -4 -19 4 -26 20 -18 39 -16 43 31 50 23 4 49 11 57 16 28
16 48 10 54 -18z m-739 -3 c3 -5 2 -10 -4 -10 -5 0 -13 5 -16 10 -3 6 -2 10 4
10 5 0 13 -4 16 -10z m271 -16 c28 -7 28 -7 9 -45 -16 -29 -16 -29 -48 -13
-18 9 -33 18 -35 19 -1 1 3 14 9 29 8 17 18 25 27 21 7 -3 25 -8 38 -11z
m-356 2 c0 -2 -12 -11 -26 -21 -25 -16 -25 -16 -14 4 9 17 40 30 40 17z m985
-6 c-3 -5 -10 -10 -16 -10 -5 0 -9 5 -9 10 0 6 7 10 16 10 8 0 12 -4 9 -10z
m-905 -16 c0 -14 -25 -54 -34 -54 -16 0 -44 20 -28 20 6 0 12 11 12 24 0 19 4
22 25 18 14 -2 25 -6 25 -8z m1004 -20 c10 -25 1 -27 -19 -4 -15 17 -16 20 -3
20 9 0 19 -7 22 -16z m-944 -7 c0 -4 5 -5 10 -2 13 8 13 -8 -2 -40 -12 -27
-39 -33 -57 -11 -16 20 5 65 30 63 11 -1 19 -5 19 -10z m133 -16 c31 -14 57
-28 57 -33 0 -12 -13 -10 -36 7 -12 8 -24 11 -28 8 -3 -3 -6 -1 -6 5 0 7 -3
11 -7 10 -15 -4 -53 13 -53 24 0 5 4 8 8 6 4 -1 33 -14 65 -27z m571 20 c6 -9
-16 -21 -40 -21 -20 0 -17 18 4 23 28 8 31 7 36 -2z m173 3 c-3 -4 -2 -15 3
-25 8 -14 6 -21 -10 -29 -17 -9 -22 -7 -30 15 -15 39 -13 45 17 45 14 0 23 -3
20 -6z m-237 -23 c0 -7 -51 -31 -67 -31 -15 0 8 26 28 31 35 10 39 10 39 0z
m-740 -54 c0 -10 -12 -7 -70 14 -45 17 -43 16 -36 27 7 12 106 -27 106 -41z
m181 32 c11 -5 18 -13 15 -17 -2 -4 11 -8 30 -8 19 -1 37 -4 40 -6 4 -4 -9
-43 -21 -66 -2 -2 -117 47 -123 53 -6 5 21 55 30 55 5 0 18 -5 29 -11z m647
-19 c6 -16 8 -31 4 -34 -15 -8 -124 -37 -128 -33 -2 2 -7 18 -10 37 -7 31 -6
33 19 28 16 -3 27 -1 27 6 0 6 8 2 17 -9 13 -17 15 -17 10 -2 -5 12 0 20 16
27 33 13 34 13 45 -20z m-518 -30 c-6 -11 -8 -25 -5 -30 11 -17 -6 -70 -21
-70 -22 0 -16 -17 9 -23 12 -3 63 -5 112 -4 97 2 90 -2 94 60 2 29 31 20 32
-10 l2 -28 4 28 c4 24 9 28 31 25 23 -2 28 -9 30 -37 l3 -33 -45 4 c-39 3 -46
0 -46 -14 0 -15 9 -18 48 -20 26 0 54 -1 62 0 8 1 42 3 75 6 64 4 207 35 215
46 10 13 50 18 56 8 9 -14 -15 -28 -48 -28 -16 0 -28 -4 -28 -9 0 -10 -90 -32
-155 -38 -96 -9 -228 -4 -236 8 -5 8 -39 12 -114 11 -59 -1 -110 -4 -113 -7
-14 -14 17 -18 115 -17 98 2 106 1 88 -13 -15 -12 -44 -14 -151 -11 -72 2
-138 0 -145 -5 -17 -11 -4 -12 155 -10 66 0 134 5 150 11 40 12 207 9 204 -5
-2 -6 -47 -10 -110 -11 -66 0 -112 -5 -120 -12 -10 -8 -65 -11 -176 -10 -89 1
-162 4 -162 5 0 16 36 53 51 53 11 0 19 5 19 11 0 5 -4 8 -8 5 -11 -7 -112 31
-133 50 -8 8 -25 14 -36 14 -21 0 -50 26 -41 36 8 8 58 -7 58 -17 0 -5 8 -9
18 -9 10 0 26 -6 37 -13 34 -23 114 -49 126 -41 9 5 10 2 6 -9 -4 -11 -1 -17
8 -17 8 0 15 4 15 9 0 12 -23 28 -40 28 -8 0 -44 13 -80 30 -36 16 -80 36 -97
43 -18 7 -33 16 -33 21 0 5 -7 9 -15 9 -8 0 -29 6 -47 14 -18 8 -42 17 -52 21
-13 4 -16 9 -9 16 6 6 19 4 39 -6 16 -8 35 -15 42 -15 7 0 20 -4 30 -9 9 -5
32 -15 50 -21 17 -7 32 -16 32 -20 0 -4 13 -10 29 -13 16 -4 53 -18 83 -32 67
-33 88 -38 88 -19 0 8 -6 15 -12 16 -7 0 -17 2 -23 2 -17 2 -130 49 -135 56
-3 4 -16 10 -30 13 -36 10 -54 23 -46 35 8 13 66 -4 66 -19 0 -5 6 -9 14 -9 8
0 44 -14 81 -30 67 -30 85 -31 85 -5 0 8 6 18 13 22 7 4 19 23 27 42 8 19 16
29 18 23 2 -6 -2 -20 -8 -32z m760 20 c0 -8 -64 -31 -100 -35 -8 0 -25 -7 -37
-13 -12 -7 -32 -12 -45 -12 -13 0 -28 -4 -33 -9 -15 -14 -166 -52 -179 -44 -6
3 -6 0 2 -8 19 -21 14 -28 -20 -25 -29 2 -33 6 -36 34 -2 22 2 34 13 38 14 6
14 8 0 18 -17 13 -10 56 10 56 19 0 39 -61 23 -71 -14 -9 -10 -16 12 -20 19
-3 148 31 195 53 11 5 32 9 45 10 14 1 30 5 35 9 6 5 26 11 45 14 19 3 36 8
39 11 8 8 31 4 31 -6z m-1153 -51 c31 -9 50 -25 41 -34 -8 -8 -102 33 -106 45
-3 9 1 11 14 6 11 -5 33 -12 51 -17z m613 11 c0 -5 -4 -10 -10 -10 -5 0 -10 5
-10 10 0 6 5 10 10 10 6 0 10 -4 10 -10z m70 0 c0 -5 -13 -10 -30 -10 -16 0
-30 5 -30 10 0 6 14 10 30 10 17 0 30 -4 30 -10z m490 1 c0 -5 -21 -15 -47
-22 -60 -16 -63 -16 -64 -4 0 6 19 15 43 22 55 14 68 15 68 4z m-699 -45 l2
-21 4 21 c4 20 28 34 61 34 7 0 12 -14 12 -35 l0 -35 -70 0 -70 0 0 28 c0 36
5 40 35 34 17 -3 25 -11 26 -26z m566 7 c4 -11 -24 -24 -57 -28 -8 -1 -28 -7
-45 -14 -47 -20 -135 -35 -143 -25 -4 5 -5 8 -3 7 2 -2 9 1 15 6 6 4 45 16 86
27 41 10 78 23 82 29 4 5 8 6 8 2 0 -4 8 -3 18 2 20 12 34 10 39 -6z m138 -3
c3 -5 -7 -12 -22 -15 -15 -4 -39 -11 -52 -16 -16 -7 -27 -7 -35 1 -5 5 -8 10
-5 11 2 0 24 6 49 13 60 18 58 17 65 6z m-1112 -51 c12 -7 23 -13 25 -14 5 -5
-29 -55 -37 -55 -4 0 -15 6 -25 13 -15 11 -16 17 -5 40 14 31 13 31 42 16z
m1011 -45 c8 -30 3 -40 -23 -47 -15 -3 -23 3 -32 25 -13 32 -7 42 30 45 13 1
21 -7 25 -23z m-918 -5 c61 -27 59 -25 44 -44 -15 -18 -34 -20 -24 -2 6 9 5 9
-7 0 -12 -9 -23 -9 -50 0 -32 11 -34 14 -25 40 5 15 11 27 12 27 1 0 23 -10
50 -21z m838 -21 c9 -34 8 -35 -18 -40 -17 -4 -27 1 -35 16 -11 21 -11 21 -7
-1 5 -27 -21 -27 -48 -1 -15 16 -13 18 31 31 66 20 70 20 77 -5z m-971 -2 c16
-12 24 -36 11 -36 -16 0 -44 23 -44 35 0 18 10 19 33 1z m845 -21 c16 -34 15
-35 -8 -35 -18 0 -40 26 -40 49 0 22 37 10 48 -14z m-49 -26 c1 -13 8 -28 15
-32 6 -5 0 -5 -14 -1 -34 9 -37 13 -20 25 11 8 12 12 3 16 -7 2 -13 9 -13 15
0 20 25 0 29 -23z m281 12 c0 -14 -49 -31 -56 -20 -7 12 -7 12 21 27 20 10 35
8 35 -7z m-1099 -1 c22 -12 23 -19 5 -43 -11 -14 -19 -16 -40 -7 -26 9 -26 10
-10 35 19 29 19 29 45 15z m108 -9 c7 -5 9 -11 4 -14 -6 -4 -19 0 -29 8 -15
11 -16 14 -4 15 8 0 21 -4 29 -9z m658 -14 c9 -10 -18 -28 -31 -20 -5 3 -44 6
-87 5 -61 0 -77 3 -73 13 4 11 27 13 94 12 49 -1 92 -6 97 -10z m-690 -37 c-9
-12 -9 -13 3 -2 16 13 56 16 64 4 2 -4 -3 -18 -12 -30 -17 -22 -18 -22 -65 -6
-26 9 -47 18 -47 20 0 3 7 16 16 29 13 20 19 22 34 12 15 -9 17 -14 7 -27z
m93 30 c0 -13 -11 -13 -30 0 -12 8 -11 10 8 10 12 0 22 -4 22 -10z m835 0 c-3
-5 -16 -10 -28 -10 -18 0 -19 2 -7 10 20 13 43 13 35 0z m119 -19 c14 -27 14
-29 -9 -39 -22 -10 -27 -8 -41 14 -9 13 -15 26 -13 28 5 4 43 25 46 26 1 0 9
-13 17 -29z m-1243 8 c27 -14 14 -31 -15 -19 -13 5 -28 6 -32 2 -5 -4 -2 1 5
11 16 20 16 20 42 6z m343 2 c7 -11 -14 -20 -31 -13 -7 2 -13 8 -13 13 0 12
37 12 44 0z m330 -18 c-10 -42 -44 -60 -44 -24 0 33 11 51 31 51 16 0 18 -5
13 -27z m346 6 c0 -12 -37 -12 -45 0 -3 5 3 11 12 13 21 5 33 0 33 -13z m40
11 c0 -5 -7 -10 -15 -10 -8 0 -15 5 -15 10 0 6 7 10 15 10 8 0 15 -4 15 -10z
m-578 -35 c-5 -38 -6 -39 -37 -31 -20 5 -25 13 -25 37 0 28 2 30 33 27 29 -3
32 -6 29 -33z m137 20 c0 -5 -4 -19 -9 -30 -8 -18 -9 -18 -10 5 -1 15 -4 19
-7 10 -14 -43 -16 -44 -23 -15 -7 28 -8 28 -9 5 -1 -19 -7 -25 -26 -26 -21 -2
-25 3 -25 26 0 26 4 29 38 32 62 5 72 4 71 -7z m-230 -22 c0 -22 -2 -24 -7
-10 -7 17 -9 16 -30 -3 l-22 -21 0 21 c0 11 7 20 15 20 8 0 15 5 15 10 0 6 7
10 15 10 10 0 15 -9 14 -27z m776 1 c9 -14 15 -27 13 -29 -2 -2 -26 -7 -55
-11 -46 -6 -52 -4 -63 16 -14 26 -10 32 30 35 17 1 34 5 37 9 11 11 21 6 38
-20z m-1086 -3 c67 -36 161 -63 207 -59 24 2 44 0 44 -3 0 -11 -75 -26 -95
-19 -11 4 -38 13 -60 19 -22 7 -49 16 -60 21 -11 4 -35 13 -52 20 -18 7 -33
19 -33 26 0 18 5 18 49 -5z m229 -17 c-10 -22 -48 -35 -48 -16 0 18 32 51 45
46 11 -5 11 -11 3 -30z m470 27 c29 -1 32 -4 32 -31 0 -28 -3 -30 -27 -27 -19
2 -30 11 -34 28 -7 22 -7 22 -8 2 -1 -16 -6 -20 -21 -16 -11 3 -20 9 -20 13 0
5 -3 15 -6 24 -4 11 1 14 23 11 15 -2 43 -4 61 -4z m-787 -17 c11 -14 10 -15
-11 -12 -13 1 -25 9 -28 16 -5 17 23 15 39 -4z m902 -11 c6 -33 8 -31 -25 -37
-28 -5 -38 8 -38 45 0 14 7 19 29 19 23 0 30 -5 34 -27z m95 -1 c4 -24 -16
-30 -36 -10 -10 10 -15 10 -22 -2 -8 -12 -10 -10 -10 10 0 22 4 25 32 24 26
-1 34 -6 36 -22z m57 -2 c15 -30 15 -30 -10 -30 -14 0 -25 3 -25 8 0 4 -3 17
-6 30 -10 34 22 28 41 -8z m308 -7 c6 -33 -5 -48 -29 -39 -16 6 -16 8 2 21 18
14 18 14 -3 15 -25 0 -31 15 -10 23 26 11 35 6 40 -20z m-687 -14 c-20 -16
-30 -19 -38 -11 -8 8 -7 13 3 16 8 2 21 7 29 9 30 11 32 6 6 -14z m614 7 c0
-15 -21 -26 -51 -26 -11 0 -27 -4 -37 -9 -25 -15 -133 -30 -164 -24 -15 3 -32
11 -37 17 -8 10 1 11 39 6 27 -4 55 -3 62 1 6 4 38 11 70 14 32 4 58 11 58 15
0 7 10 11 53 19 4 0 7 -5 7 -13z m-810 -23 c0 -14 -46 -18 -54 -4 -8 13 4 21
30 19 13 -1 24 -8 24 -15z m135 7 c-3 -5 -13 -10 -21 -10 -8 0 -12 5 -9 10 3
6 13 10 21 10 8 0 12 -4 9 -10z m-50 -10 c-3 -5 -12 -10 -20 -10 -8 0 -17 5
-20 10 -4 6 5 10 20 10 15 0 24 -4 20 -10z m135 0 c0 -5 -7 -10 -15 -10 -8 0
-15 5 -15 10 0 6 7 10 15 10 8 0 15 -4 15 -10z m45 -10 c3 -5 2 -10 -4 -10 -5
0 -13 5 -16 10 -3 6 -2 10 4 10 5 0 13 -4 16 -10z m565 -5 c0 -8 -12 -17 -27
-20 -16 -3 -42 -10 -59 -15 -71 -23 -224 -19 -224 5 0 9 10 9 48 0 26 -7 52
-9 57 -5 6 4 37 11 70 15 33 4 68 13 79 21 27 18 56 18 56 -1z m-650 -24 c0
-20 -6 -30 -20 -34 -21 -5 -27 14 -14 47 11 27 34 18 34 -13z m154 21 c2 -4
-6 -9 -20 -10 -13 -1 -24 3 -24 8 0 12 37 14 44 2z m96 -2 c0 -5 -3 -11 -7
-11 -38 -7 -53 -5 -53 7 0 9 11 14 30 14 17 0 30 -4 30 -10z m-439 -9 c3 0 4
-14 1 -30 -3 -24 -8 -28 -33 -27 -25 1 -29 4 -25 21 3 11 6 25 6 31 0 9 22 12
51 5z m134 -18 c-4 -16 -7 -28 -8 -29 -1 -1 -25 -4 -53 -8 l-51 -6 5 29 c4 26
9 30 41 34 78 8 74 9 66 -20z m770 17 c3 -5 -1 -10 -10 -10 -9 0 -13 5 -10 10
3 6 8 10 10 10 2 0 7 -4 10 -10z m-671 -16 c11 -29 6 -44 -14 -44 -11 0 -20 6
-20 14 0 21 11 46 20 46 4 0 11 -7 14 -16z m-691 -8 c18 -14 18 -16 2 -40 -14
-20 -21 -24 -35 -16 -28 15 -32 27 -18 50 15 23 26 25 51 6z m793 4 c20 0 24
-5 24 -31 l0 -30 -47 7 c-61 8 -63 10 -63 41 0 23 3 25 31 19 17 -3 42 -6 55
-6z m106 -30 c4 -27 2 -30 -24 -30 -17 0 -28 5 -28 14 0 8 -3 21 -6 30 -5 12
1 16 24 16 25 0 30 -4 34 -30z m-790 -19 c45 -13 46 -14 35 -40 -6 -14 -12
-28 -13 -29 -5 -8 -44 10 -39 17 2 5 -6 6 -18 4 -12 -2 -30 2 -41 10 -16 11
-17 17 -7 36 7 12 18 21 24 19 7 -2 33 -10 59 -17z m1238 -28 c0 -7 -10 -18
-22 -24 -18 -10 -24 -8 -35 7 -19 26 -16 39 10 51 17 9 25 8 35 -5 6 -9 12
-22 12 -29z m-690 28 c0 -5 -8 -12 -17 -16 -47 -19 -251 -27 -255 -10 -2 6 26
11 67 12 84 1 165 10 173 17 9 9 32 7 32 -3z m-700 -26 c21 -25 1 -31 -22 -7
-18 18 -19 22 -6 22 8 0 21 -7 28 -15z m246 0 c5 -16 -32 -59 -44 -51 -17 10
7 68 26 64 8 -2 17 -7 18 -13z m164 6 c0 -10 -40 -22 -52 -15 -18 11 -6 24 22
24 17 0 30 -4 30 -9z m330 0 c0 -5 10 -9 23 -8 12 0 40 -3 62 -8 22 -4 61 -7
88 -6 27 1 47 -2 47 -8 0 -19 -100 -17 -197 4 -35 7 -63 9 -63 5 0 -10 36 -22
85 -26 22 -3 52 -8 67 -13 14 -5 45 -7 67 -4 34 5 41 3 41 -11 0 -15 -9 -17
-72 -11 -92 7 -159 23 -189 46 -20 15 -21 19 -10 33 14 17 51 22 51 7z m561
-18 c7 -20 6 -28 -3 -35 -21 -13 -34 -9 -46 15 -10 20 -11 19 -5 -8 3 -16 2
-27 -2 -23 -4 4 -17 3 -30 -2 -18 -7 -24 -5 -28 8 -3 9 -8 25 -12 35 -6 14 -1
17 26 18 28 1 55 7 87 18 1 1 7 -11 13 -26z m-136 -24 c9 -41 -2 -49 -25 -19
-25 32 -25 50 -1 50 14 0 21 -9 26 -31z m-505 6 c-10 -12 -9 -15 3 -15 8 0 32
-8 53 -17 47 -20 38 -18 98 -28 27 -4 72 -8 100 -9 30 -1 49 -5 46 -11 -7 -14
-154 -10 -193 5 -18 7 -46 19 -64 26 -27 12 -38 12 -75 -1 -48 -16 -143 -21
-133 -6 3 6 37 13 75 17 52 5 70 10 70 21 0 11 -5 13 -17 7 -30 -13 -123 -17
-123 -5 0 12 26 19 80 23 19 2 48 4 63 5 24 2 27 0 17 -12z m370 0 c0 -16 -9
-19 -34 -9 -25 9 -19 24 9 24 16 0 25 -6 25 -15z m-923 -31 c-7 -7 -76 20 -71
27 3 5 20 1 39 -8 19 -9 33 -18 32 -19z m291 24 c-7 -19 -35 -21 -41 -3 -5 11
0 15 19 15 16 0 24 -5 22 -12z m87 -8 c0 -11 -8 -14 -30 -12 -36 5 -39 7 -30
22 10 16 60 8 60 -10z m906 -10 c-12 -11 -27 -17 -33 -14 -11 7 21 33 42 33
10 0 8 -6 -9 -19z m-1247 -6 c9 -3 14 -10 11 -15 -7 -10 -35 0 -35 12 0 11 3
11 24 3z m884 -6 c-3 -7 -13 -13 -23 -13 -10 0 -20 6 -22 13 -3 7 5 12 22 12
17 0 25 -5 23 -12z m-818 -8 c0 -5 -9 -10 -21 -10 -11 0 -17 5 -14 10 3 6 13
10 21 10 8 0 14 -4 14 -10z m190 -6 c0 -2 -9 -4 -21 -4 -11 0 -18 4 -14 10 5
8 35 3 35 -6z m68 7 c8 -1 12 -7 9 -13 -3 -11 -55 -13 -66 -3 -8 9 11 23 27
20 9 -2 23 -4 30 -4z m862 0 c0 -5 -11 -12 -24 -15 -13 -3 -31 -9 -40 -12 -10
-4 -16 -1 -16 7 0 7 3 10 6 7 3 -4 17 0 32 8 31 16 42 17 42 5z m-146 -20 c3
-4 3 -11 0 -14 -8 -8 -34 3 -34 14 0 11 27 12 34 0z m46 -11 c-8 -5 -18 -6
-24 -3 -5 4 -1 10 10 13 24 9 34 2 14 -10z m-542 -2 c15 -15 16 -58 2 -58 -9
0 -14 14 -11 33 0 4 -3 7 -8 7 -5 0 -11 -10 -13 -22 -5 -38 -28 -33 -28 5 0
34 4 38 41 46 3 0 10 -4 17 -11z m332 -7 c0 -5 -9 -7 -20 -4 -11 3 -20 7 -20
9 0 2 9 4 20 4 11 0 20 -4 20 -9z m-550 -20 c-1 -25 -15 -51 -29 -51 -29 0
-42 16 -36 42 5 20 11 24 36 20 16 -2 29 -7 29 -11z m142 -16 c-4 -31 -8 -35
-33 -35 -25 0 -29 4 -30 28 l-2 27 -4 -26 c-3 -19 -11 -28 -29 -32 -21 -4 -24
-1 -24 29 0 32 1 33 48 37 26 2 54 4 62 5 13 2 15 -6 12 -33z m127 26 c9 -6
11 -18 7 -36 -9 -35 -30 -27 -34 13 -3 33 3 38 27 23z m129 -27 c6 -2 12 -17
12 -34 0 -27 -3 -31 -22 -28 -16 2 -25 12 -29 33 l-7 30 -2 -30 -2 -30 -8 30
-8 30 -1 -28 c-2 -42 -35 -33 -39 10 l-3 33 48 -6 c26 -3 54 -7 61 -10z m102
-23 c0 -28 -14 -41 -46 -41 -9 0 -14 11 -14 33 0 29 3 33 30 35 27 2 30 -1 30
-27z m-310 -20 c0 -12 -20 -25 -27 -18 -7 7 6 27 18 27 5 0 9 -4 9 -9z m-210
-21 c0 -13 -30 -13 -50 0 -11 7 -7 10 18 10 17 0 32 -4 32 -10z m160 0 c0 -5
-9 -10 -21 -10 -11 0 -17 5 -14 10 3 6 13 10 21 10 8 0 14 -4 14 -10z m130 -6
c0 -14 -3 -14 -15 -4 -8 7 -15 14 -15 16 0 2 7 4 15 4 8 0 15 -7 15 -16z
m-212 -1 c-10 -2 -26 -2 -35 0 -10 3 -2 5 17 5 19 0 27 -2 18 -5z m267 -13 c3
-5 -1 -10 -9 -10 -8 0 -18 5 -21 10 -3 6 1 10 9 10 8 0 18 -4 21 -10z m95 -10
c0 -5 -11 -10 -24 -10 -14 0 -28 5 -31 10 -4 6 7 10 24 10 17 0 31 -4 31 -10z
m87 4 c-10 -11 -57 -13 -57 -3 0 5 14 9 32 9 17 0 28 -3 25 -6z"/>
<path d="M3187 2660 c3 -11 9 -20 15 -20 5 0 4 9 -2 20 -6 11 -12 20 -14 20
-2 0 -2 -9 1 -20z"/>
<path d="M2770 2361 c-65 -6 -64 -6 51 -16 87 -7 115 -7 112 1 -4 12 -53 25
-82 22 -9 -1 -45 -4 -81 -7z"/>
<path d="M2606 2375 c-9 -26 -7 -32 5 -12 6 10 9 21 6 23 -2 3 -7 -2 -11 -11z"/>
<path d="M2407 2073 c-4 -3 -7 -11 -7 -17 0 -6 5 -5 12 2 6 6 9 14 7 17 -3 3
-9 2 -12 -2z"/>
<path d="M5513 2725 c0 -22 2 -30 4 -17 2 12 2 30 0 40 -3 9 -5 -1 -4 -23z"/>
<path d="M172 2645 c0 -16 2 -22 5 -12 2 9 2 23 0 30 -3 6 -5 -1 -5 -18z"/>
<path d="M5502 2620 c0 -19 2 -27 5 -17 2 9 2 25 0 35 -3 9 -5 1 -5 -18z"/>
<path d="M181 2554 c0 -11 3 -14 6 -6 3 7 2 16 -1 19 -3 4 -6 -2 -5 -13z"/>
<path d="M5492 2540 c0 -14 2 -19 5 -12 2 6 2 18 0 25 -3 6 -5 1 -5 -13z"/>
<path d="M192 2490 c0 -14 2 -19 5 -12 2 6 2 18 0 25 -3 6 -5 1 -5 -13z"/>
<path d="M5481 2474 c0 -11 3 -14 6 -6 3 7 2 16 -1 19 -3 4 -6 -2 -5 -13z"/>
<path d="M201 2434 c0 -11 3 -14 6 -6 3 7 2 16 -1 19 -3 4 -6 -2 -5 -13z"/>
<path d="M5471 2424 c0 -11 3 -14 6 -6 3 7 2 16 -1 19 -3 4 -6 -2 -5 -13z"/>
<path d="M5461 2374 c0 -11 3 -14 6 -6 3 7 2 16 -1 19 -3 4 -6 -2 -5 -13z"/>
<path d="M221 2334 c0 -11 3 -14 6 -6 3 7 2 16 -1 19 -3 4 -6 -2 -5 -13z"/>
<path d="M5451 2324 c0 -11 3 -14 6 -6 3 7 2 16 -1 19 -3 4 -6 -2 -5 -13z"/>
<path d="M231 2294 c0 -11 3 -14 6 -6 3 7 2 16 -1 19 -3 4 -6 -2 -5 -13z"/>
<path d="M5441 2284 c0 -11 3 -14 6 -6 3 7 2 16 -1 19 -3 4 -6 -2 -5 -13z"/>
<path d="M5431 2244 c0 -11 3 -14 6 -6 3 7 2 16 -1 19 -3 4 -6 -2 -5 -13z"/>
<path d="M251 2214 c0 -11 3 -14 6 -6 3 7 2 16 -1 19 -3 4 -6 -2 -5 -13z"/>
<path d="M370 1875 c0 -5 5 -17 10 -25 5 -8 10 -10 10 -5 0 6 -5 17 -10 25 -5
8 -10 11 -10 5z"/>
<path d="M5272 1805 c-17 -37 -14 -45 4 -12 9 16 14 31 11 33 -2 2 -9 -7 -15
-21z"/>
<path d="M420 1766 c0 -11 40 -86 45 -86 3 0 -4 19 -16 43 -23 45 -29 54 -29
43z"/>
<path d="M1989 1723 c-13 -16 -12 -17 4 -4 9 7 17 15 17 17 0 8 -8 3 -21 -13z"/>
<path d="M5200 1660 c-11 -22 -18 -40 -15 -40 2 0 14 18 25 40 11 22 18 40 15
40 -2 0 -14 -18 -25 -40z"/>
<path d="M505 1600 c9 -16 18 -30 21 -30 2 0 -2 14 -11 30 -9 17 -18 30 -21
30 -2 0 2 -13 11 -30z"/>
<path d="M3571 1620 c1 -8 5 -26 9 -40 l8 -25 1 25 c0 14 -4 32 -9 40 -9 13
-10 13 -9 0z"/>
<path d="M5150 1570 c-6 -11 -8 -20 -6 -20 3 0 10 9 16 20 6 11 8 20 6 20 -3
0 -10 -9 -16 -20z"/>
<path d="M540 1540 c6 -11 13 -20 16 -20 2 0 0 9 -6 20 -6 11 -13 20 -16 20
-2 0 0 -9 6 -20z"/>
<path d="M5124 1528 c-4 -7 -14 -24 -22 -38 -14 -24 -13 -24 3 -5 20 24 37 55
31 55 -3 0 -8 -6 -12 -12z"/>
<path d="M1794 1493 c-30 -41 -39 -62 -15 -33 23 27 44 60 38 60 -2 0 -12 -12
-23 -27z"/>
<path d="M2700 1489 c0 -5 5 -7 10 -4 6 3 10 8 10 11 0 2 -4 4 -10 4 -5 0 -10
-5 -10 -11z"/>
<path d="M599 1445 c9 -19 21 -36 28 -39 6 -3 3 11 -9 30 -27 46 -39 52 -19 9z"/>
<path d="M5040 1398 c-30 -45 -34 -54 -14 -32 27 29 68 94 59 94 -2 0 -22 -28
-45 -62z"/>
<path d="M1723 1366 c-13 -26 -23 -54 -22 -64 0 -9 7 1 15 23 8 21 19 42 25
46 6 3 9 14 7 24 -2 12 -10 2 -25 -29z"/>
<path d="M660 1356 c0 -2 8 -10 18 -17 15 -13 16 -12 3 4 -13 16 -21 21 -21
13z"/>
<path d="M2437 1346 c-4 -10 -7 -25 -6 -34 0 -11 4 -9 10 7 5 13 8 29 6 35 -2
5 -6 2 -10 -8z"/>
<path d="M2653 1343 c-16 -6 -17 -53 -2 -53 6 0 8 7 5 17 -4 9 -1 20 6 24 15
9 8 18 -9 12z"/>
<path d="M4979 1313 c-13 -16 -12 -17 4 -4 9 7 17 15 17 17 0 8 -8 3 -21 -13z"/>
<path d="M690 1316 c0 -2 8 -10 18 -17 15 -13 16 -12 3 4 -13 16 -21 21 -21
13z"/>
<path d="M4944 1268 l-19 -23 23 19 c21 18 27 26 19 26 -2 0 -12 -10 -23 -22z"/>
<path d="M735 1260 c10 -11 20 -20 23 -20 3 0 -3 9 -13 20 -10 11 -20 20 -23
20 -3 0 3 -9 13 -20z"/>
<path d="M2000 1273 c0 -6 -11 -27 -25 -47 -13 -20 -21 -36 -17 -36 12 0 55
80 48 87 -3 4 -6 2 -6 -4z"/>
<path d="M1679 1222 c-3 -20 -2 -29 4 -23 5 5 7 19 5 32 -3 20 -5 19 -9 -9z"/>
<path d="M4899 1213 l-24 -28 28 24 c15 14 27 26 27 28 0 8 -8 1 -31 -24z"/>
<path d="M780 1205 c13 -14 26 -25 28 -25 3 0 -5 11 -18 25 -13 14 -26 25 -28
25 -3 0 5 -11 18 -25z"/>
<path d="M2401 1194 c0 -11 3 -14 6 -6 3 7 2 16 -1 19 -3 4 -6 -2 -5 -13z"/>
<path d="M1646 1128 c-9 -29 -19 -73 -21 -98 l-4 -45 9 44 c5 25 17 67 26 93
9 27 14 51 12 54 -3 2 -13 -19 -22 -48z"/>
<path d="M4774 1073 c-54 -60 -88 -99 -75 -88 29 25 185 195 179 195 -3 0 -49
-48 -104 -107z"/>
<path d="M870 1105 c35 -36 67 -65 69 -65 3 0 -24 29 -59 65 -35 36 -67 65
-69 65 -3 0 24 -29 59 -65z"/>
<path d="M2751 1154 c0 -11 3 -14 6 -6 3 7 2 16 -1 19 -3 4 -6 -2 -5 -13z"/>
<path d="M3811 1160 c0 -8 6 -28 14 -45 17 -39 18 -21 0 25 -7 19 -14 28 -14
20z"/>
<path d="M1904 1132 c-12 -9 -27 -28 -34 -42 -7 -14 -8 -20 -4 -15 5 6 22 25
38 43 33 35 32 41 0 14z"/>
<path d="M3551 1063 c7 -10 15 -20 16 -22 2 -2 3 3 3 11 0 9 -7 19 -16 22 -15
6 -15 4 -3 -11z"/>
<path d="M1034 945 c39 -38 91 -85 116 -103 44 -33 44 -33 -5 9 -27 24 -80 71
-116 104 l-66 60 71 -70z"/>
<path d="M1820 1000 c-6 -11 -8 -20 -6 -20 3 0 10 9 16 20 6 11 8 20 6 20 -3
0 -10 -9 -16 -20z"/>
<path d="M4620 927 c-25 -23 -67 -62 -95 -85 -48 -42 -48 -42 -5 -10 47 35
158 137 150 137 -3 0 -25 -18 -50 -42z"/>
<path d="M1612 940 c0 -14 2 -19 5 -12 2 6 2 18 0 25 -3 6 -5 1 -5 -13z"/>
<path d="M1783 948 c-15 -20 -25 -38 -20 -38 3 0 12 11 21 25 17 26 16 35 -1
13z"/>
<path d="M2401 944 c0 -11 3 -14 6 -6 3 7 2 16 -1 19 -3 4 -6 -2 -5 -13z"/>
<path d="M1589 860 c-8 -27 -12 -47 -8 -44 10 6 31 72 27 83 -2 5 -10 -12 -19
-39z"/>
<path d="M2673 860 c0 -25 2 -35 4 -22 2 12 2 32 0 45 -2 12 -4 2 -4 -23z"/>
<path d="M2794 870 c3 -8 9 -23 12 -32 4 -10 10 -18 16 -18 9 0 0 20 -22 50
-10 13 -11 13 -6 0z"/>
<path d="M2440 835 c0 -5 5 -17 10 -25 5 -8 10 -10 10 -5 0 6 -5 17 -10 25 -5
8 -10 11 -10 5z"/>
<path d="M1207 799 c14 -17 103 -83 103 -76 0 3 -26 24 -57 48 -32 23 -53 36
-46 28z"/>
<path d="M1718 773 c-3 -23 -13 -50 -22 -58 -9 -9 -16 -24 -16 -33 0 -13 5
-11 20 8 21 27 34 77 28 107 -2 10 -7 -1 -10 -24z"/>
<path d="M4449 783 c-13 -16 -12 -17 4 -4 9 7 17 15 17 17 0 8 -8 3 -21 -13z"/>
<path d="M1535 760 c-3 -5 -1 -10 4 -10 6 0 11 5 11 10 0 6 -2 10 -4 10 -3 0
-8 -4 -11 -10z"/>
<path d="M4409 753 c-13 -16 -12 -17 4 -4 16 13 21 21 13 21 -2 0 -10 -8 -17
-17z"/>
<path d="M4000 735 c7 -8 17 -15 22 -15 6 0 5 7 -2 15 -7 8 -17 15 -22 15 -6
0 -5 -7 2 -15z"/>
<path d="M4180 738 c-14 -6 -38 -14 -55 -19 -29 -8 -28 -8 5 -3 56 8 65 10 78
18 7 4 22 4 33 1 15 -5 19 -4 15 4 -9 14 -43 13 -76 -1z"/>
<path d="M1495 730 c-3 -5 -1 -10 4 -10 6 0 11 5 11 10 0 6 -2 10 -4 10 -3 0
-8 -4 -11 -10z"/>
<path d="M4270 726 c0 -9 7 -12 21 -9 16 4 17 8 7 14 -19 13 -28 11 -28 -5z"/>
<path d="M1405 704 c-19 -21 -22 -30 -14 -40 11 -14 33 -9 25 4 -2 4 2 16 10
27 10 13 17 16 22 9 5 -9 10 -8 19 1 10 10 9 14 -3 19 -26 10 -34 7 -59 -20z"/>
<path d="M4190 689 c0 -5 5 -7 10 -4 6 3 10 8 10 11 0 2 -4 4 -10 4 -5 0 -10
-5 -10 -11z"/>
<path d="M3827 655 c9 -19 18 -33 21 -31 4 5 -26 66 -33 66 -3 0 3 -16 12 -35z"/>
<path d="M4260 659 c0 -5 5 -7 10 -4 6 3 10 8 10 11 0 2 -4 4 -10 4 -5 0 -10
-5 -10 -11z"/>
<path d="M1450 631 c0 -6 4 -13 10 -16 6 -3 7 1 4 9 -7 18 -14 21 -14 7z"/>
<path d="M1587 624 c-8 -8 1 -24 12 -24 4 0 8 7 8 15 0 16 -9 20 -20 9z"/>
<path d="M4175 610 c3 -5 0 -10 -8 -10 -8 0 -17 -7 -21 -15 -4 -10 -20 -15
-50 -15 -38 0 -51 -5 -80 -35 -20 -19 -41 -35 -47 -35 -7 0 -10 -2 -7 -5 8 -8
78 27 72 36 -2 4 4 13 15 18 25 14 34 14 25 0 -5 -8 -1 -8 14 0 11 6 27 11 36
11 17 0 85 41 86 53 0 4 -9 7 -21 7 -11 0 -17 -4 -14 -10z"/>
<path d="M1542 591 c-11 -6 -10 -10 0 -19 11 -8 14 -7 14 9 0 10 0 19 -1 19 0
0 -6 -4 -13 -9z"/>
<path d="M1660 555 c-8 -9 -21 -13 -34 -10 -20 6 -20 5 -2 -9 16 -13 20 -13
39 5 11 10 18 21 15 24 -3 3 -11 -1 -18 -10z"/>
<path d="M3855 548 c4 -13 11 -27 16 -33 5 -5 4 5 -2 23 -12 36 -24 44 -14 10z"/>
<path d="M3061 525 c1 -19 18 -51 18 -35 0 8 -4 22 -9 30 -5 8 -9 11 -9 5z"/>
<path d="M2581 490 c-1 -14 -4 -36 -6 -50 l-6 -25 11 25 c6 13 9 36 7 50 l-4
25 -2 -25z"/>
<path d="M1720 485 c14 -8 30 -14 35 -14 6 0 -1 6 -15 14 -14 8 -29 14 -35 14
-5 0 1 -6 15 -14z"/>
<path d="M3905 470 c-3 -6 1 -7 9 -4 18 7 21 14 7 14 -6 0 -13 -4 -16 -10z"/>
<path d="M1800 450 c8 -5 20 -10 25 -10 6 0 3 5 -5 10 -8 5 -19 10 -25 10 -5
0 -3 -5 5 -10z"/>
<path d="M2771 444 c0 -11 3 -14 6 -6 3 7 2 16 -1 19 -3 4 -6 -2 -5 -13z"/>
<path d="M1850 430 c8 -5 20 -10 25 -10 6 0 3 5 -5 10 -8 5 -19 10 -25 10 -5
0 -3 -5 5 -10z"/>
<path d="M2770 411 c0 -6 4 -13 10 -16 6 -3 7 1 4 9 -7 18 -14 21 -14 7z"/>
<path d="M3760 410 c-8 -5 -10 -10 -5 -10 6 0 17 5 25 10 8 5 11 10 5 10 -5 0
-17 -5 -25 -10z"/>
<path d="M1930 400 c8 -5 20 -10 25 -10 6 0 3 5 -5 10 -8 5 -19 10 -25 10 -5
0 -3 -5 5 -10z"/>
<path d="M2570 390 c0 -5 5 -10 10 -10 6 0 10 5 10 10 0 6 -4 10 -10 10 -5 0
-10 -4 -10 -10z"/>
<path d="M2891 374 c0 -11 3 -14 6 -6 3 7 2 16 -1 19 -3 4 -6 -2 -5 -13z"/>
<path d="M2557 363 c-11 -10 -8 -36 8 -66 8 -15 12 -34 8 -42 -3 -9 1 -16 8
-16 8 -1 25 -3 39 -5 71 -10 232 -13 253 -5 23 9 23 12 13 54 -12 55 -28 51
-24 -6 3 -42 3 -42 -32 -42 -30 0 -35 3 -38 27 -2 14 -10 29 -18 32 -16 6 -19
-5 -4 -20 17 -17 0 -45 -24 -42 -16 2 -22 11 -25 38 -3 32 -4 33 -10 10 -5
-18 -14 -25 -34 -27 -14 -1 -29 2 -32 7 -3 5 -11 7 -18 5 -24 -9 -58 29 -60
68 -1 20 -2 37 -3 37 0 0 -4 -3 -7 -7z"/>
<path d="M3598 353 c7 -3 16 -2 19 1 4 3 -2 6 -13 5 -11 0 -14 -3 -6 -6z"/>
<path d="M3528 333 c7 -3 16 -2 19 1 4 3 -2 6 -13 5 -11 0 -14 -3 -6 -6z"/>
<path d="M2178 323 c7 -3 16 -2 19 1 4 3 -2 6 -13 5 -11 0 -14 -3 -6 -6z"/>
<path d="M3470 320 c-21 -7 -21 -8 -5 -9 11 0 27 4 35 9 18 11 5 11 -30 0z"/>
<path d="M2268 303 c7 -3 16 -2 19 1 4 3 -2 6 -13 5 -11 0 -14 -3 -6 -6z"/>
<path d="M2655 300 c3 -5 8 -10 11 -10 2 0 4 5 4 10 0 6 -5 10 -11 10 -5 0 -7
-4 -4 -10z"/>
<path d="M2318 293 c7 -3 16 -2 19 1 4 3 -2 6 -13 5 -11 0 -14 -3 -6 -6z"/>
<path d="M2368 283 c7 -3 16 -2 19 1 4 3 -2 6 -13 5 -11 0 -14 -3 -6 -6z"/>
<path d="M2423 273 c9 -2 23 -2 30 0 6 3 -1 5 -18 5 -16 0 -22 -2 -12 -5z"/>
<path d="M2820 269 c0 -5 5 -7 10 -4 6 3 10 8 10 11 0 2 -4 4 -10 4 -5 0 -10
-5 -10 -11z"/>
<path d="M2498 263 c6 -2 18 -2 25 0 6 3 1 5 -13 5 -14 0 -19 -2 -12 -5z"/>
<path d="M3000 250 c-18 -6 -4 -8 48 -9 47 -1 71 3 67 9 -7 12 -79 12 -115 0z"/>
<path d="M3175 250 c-3 -5 3 -10 15 -10 12 0 18 5 15 10 -3 6 -10 10 -15 10
-5 0 -12 -4 -15 -10z"/>
<path d="M3323 248 c-2 -5 15 -8 38 -8 23 0 39 3 36 7 -10 9 -68 10 -74 1z"/>
<path d="M1083 243 c251 -2 663 -2 915 0 251 1 45 2 -458 2 -503 0 -709 -1
-457 -2z"/>
<path d="M3230 240 c20 -13 33 -13 25 0 -3 6 -14 10 -23 10 -15 0 -15 -2 -2
-10z"/>
<path d="M3458 243 c6 -2 18 -2 25 0 6 3 1 5 -13 5 -14 0 -19 -2 -12 -5z"/>
<path d="M3883 243 c213 -2 561 -2 775 0 213 1 38 2 -388 2 -426 0 -601 -1
-387 -2z"/>
<path d="M2918 233 c6 -2 18 -2 25 0 6 3 1 5 -13 5 -14 0 -19 -2 -12 -5z"/>
</g>
</svg>
